M48
; DRILL file {KiCad (6.0.1-0)} date 2022 September 26, Monday 15:58:11
; FORMAT={-:-/ absolute / inch / decimal}
; #@! TF.CreationDate,2022-09-26T15:58:11+02:00
; #@! TF.GenerationSoftware,Kicad,Pcbnew,(6.0.1-0)
; #@! TF.FileFunction,Plated,1,2,PTH
FMAT,2
INCH
; #@! TA.AperFunction,Plated,PTH,ViaDrill
T1C0.0157
; #@! TA.AperFunction,Plated,PTH,ComponentDrill
T2C0.0315
; #@! TA.AperFunction,Plated,PTH,ComponentDrill
T3C0.0374
; #@! TA.AperFunction,Plated,PTH,ComponentDrill
T4C0.0394
; #@! TA.AperFunction,Plated,PTH,ComponentDrill
T5C0.0433
; #@! TA.AperFunction,Plated,PTH,ComponentDrill
T6C0.0748
%
G90
G05
T1
X3.0768Y-3.8878
X3.0768Y-3.9232
X3.0768Y-3.9626
X3.0768Y-4.0
X3.5543Y-4.5106
X3.5937Y-4.5106
X3.6476Y-4.5118
X4.1516Y-5.1594
X4.1516Y-5.2008
X4.1634Y-3.1299
X4.1988Y-3.1634
X4.2628Y-4.188
X4.2815Y-4.2067
X4.3002Y-4.2254
T2
X1.8182Y-2.4634
X1.8182Y-3.487
X1.8182Y-4.5106
X1.8182Y-5.5343
X1.8889Y-2.3927
X1.8889Y-2.5341
X1.8889Y-3.4163
X1.8889Y-3.5577
X1.8889Y-4.4399
X1.8889Y-4.5813
X1.8889Y-5.4635
X1.8889Y-5.605
X1.9596Y-2.322
X1.9596Y-2.4634
X1.9596Y-3.3456
X1.9596Y-3.487
X1.9596Y-4.3692
X1.9596Y-4.5106
X1.9596Y-5.3928
X1.9596Y-5.5343
X2.0303Y-2.2513
X2.0303Y-2.3927
X2.0303Y-3.2749
X2.0303Y-3.4163
X2.0303Y-4.2985
X2.0303Y-4.4399
X2.0303Y-5.3221
X2.0303Y-5.4635
X2.101Y-2.322
X2.101Y-3.3456
X2.101Y-4.3692
X2.101Y-5.3928
X2.5331Y-3.1693
X2.7169Y-3.1693
X2.8418Y-2.4634
X2.8418Y-3.487
X2.8418Y-4.5106
X2.8418Y-5.5343
X2.8866Y-2.8157
X2.9125Y-2.3927
X2.9125Y-2.5341
X2.9125Y-3.4163
X2.9125Y-3.5577
X2.9125Y-4.4399
X2.9125Y-4.5813
X2.9125Y-5.4635
X2.9125Y-5.605
X2.9832Y-2.322
X2.9832Y-2.4634
X2.9832Y-3.3456
X2.9832Y-3.487
X2.9832Y-4.3692
X2.9832Y-4.5106
X2.9832Y-5.3928
X2.9832Y-5.5343
X3.0539Y-2.2513
X3.0539Y-2.3927
X3.0539Y-3.2749
X3.0539Y-3.4163
X3.0539Y-4.2985
X3.0539Y-4.4399
X3.0539Y-5.3221
X3.0539Y-5.4635
X3.0705Y-2.8157
X3.1247Y-2.322
X3.1247Y-3.3456
X3.1247Y-4.3692
X3.1247Y-5.3928
X3.1303Y-4.724
X3.4839Y-4.3705
X3.5689Y-3.1693
X3.8654Y-2.4634
X3.8654Y-3.487
X3.8654Y-4.5106
X3.8654Y-5.5343
X3.9361Y-2.3927
X3.9361Y-2.5341
X3.9361Y-3.4163
X3.9361Y-3.5577
X3.9361Y-4.4399
X3.9361Y-4.5813
X3.9361Y-5.4635
X3.9361Y-5.605
X4.0069Y-2.322
X4.0069Y-2.4634
X4.0069Y-3.3456
X4.0069Y-3.487
X4.0069Y-4.3692
X4.0069Y-4.5106
X4.0069Y-5.3928
X4.0069Y-5.5343
X4.0689Y-3.1693
X4.0776Y-2.2513
X4.0776Y-2.3927
X4.0776Y-3.2749
X4.0776Y-3.4163
X4.0776Y-4.2985
X4.0776Y-4.4399
X4.0776Y-5.3221
X4.0776Y-5.4635
X4.1483Y-2.322
X4.1483Y-3.3456
X4.1483Y-4.3692
X4.1483Y-5.3928
X4.8891Y-2.4634
X4.8891Y-3.487
X4.8891Y-4.5106
X4.8891Y-5.5343
X4.9598Y-2.3927
X4.9598Y-2.5341
X4.9598Y-3.4163
X4.9598Y-3.5577
X4.9598Y-4.4399
X4.9598Y-4.5813
X4.9598Y-5.4635
X4.9598Y-5.605
X5.0305Y-2.322
X5.0305Y-2.4634
X5.0305Y-3.3456
X5.0305Y-3.487
X5.0305Y-4.3692
X5.0305Y-4.5106
X5.0305Y-5.3928
X5.0305Y-5.5343
X5.1012Y-2.2513
X5.1012Y-2.3927
X5.1012Y-3.2749
X5.1012Y-3.4163
X5.1012Y-4.2985
X5.1012Y-4.4399
X5.1012Y-5.3221
X5.1012Y-5.4635
X5.1719Y-2.322
X5.1719Y-3.3456
X5.1719Y-4.3692
X5.1719Y-5.3928
T3
X3.6845Y-4.08
X3.7541Y-4.0104
X3.8237Y-3.9408
X3.8933Y-3.8712
X3.9434Y-4.0881
X3.9629Y-3.8016
X4.013Y-4.0185
X4.0325Y-3.732
X4.0825Y-3.9489
X4.1521Y-3.8794
X4.2217Y-3.8098
X4.2913Y-3.7402
T4
X2.8295Y-3.7599
X3.1357Y-4.0662
T5
X2.1894Y-3.6302
X2.3147Y-3.7555
X2.3704Y-3.4492
X2.4956Y-3.5745
T6
X2.6346Y-4.1219
X2.7738Y-4.261
T0
M30
