%TF.GenerationSoftware,KiCad,Pcbnew,(6.0.1-0)*%
%TF.CreationDate,2022-09-26T15:58:14+02:00*%
%TF.ProjectId,wifi_camera,77696669-5f63-4616-9d65-72612e6b6963,rev?*%
%TF.SameCoordinates,Original*%
%TF.FileFunction,Legend,Bot*%
%TF.FilePolarity,Positive*%
%FSLAX46Y46*%
G04 Gerber Fmt 4.6, Leading zero omitted, Abs format (unit mm)*
G04 Created by KiCad (PCBNEW (6.0.1-0)) date 2022-09-26 15:58:14*
%MOMM*%
%LPD*%
G01*
G04 APERTURE LIST*
%ADD10C,0.275000*%
%ADD11C,0.150000*%
%ADD12C,0.120000*%
G04 APERTURE END LIST*
D10*
X73386830Y-107034726D02*
X72201585Y-105849480D01*
X72201585Y-107034726D02*
X73386830Y-105849480D01*
X69090315Y-102738211D02*
X67905069Y-101552965D01*
X115765544Y-100742222D02*
X115087058Y-100063736D01*
X115034867Y-100846605D01*
X114878294Y-100690031D01*
X114721720Y-100637840D01*
X114617337Y-100637840D01*
X114460764Y-100690031D01*
X114199808Y-100950987D01*
X114147617Y-101107561D01*
X114147617Y-101211943D01*
X114199808Y-101368517D01*
X114512955Y-101681664D01*
X114669529Y-101733855D01*
X114773911Y-101733855D01*
X113625704Y-100585649D02*
X113521322Y-100585649D01*
X113521322Y-100690031D01*
X113625704Y-100690031D01*
X113625704Y-100585649D01*
X113521322Y-100690031D01*
X114199808Y-99176486D02*
X113521322Y-98498000D01*
X113469131Y-99280868D01*
X113312557Y-99124295D01*
X113155983Y-99072103D01*
X113051601Y-99072103D01*
X112895027Y-99124295D01*
X112634071Y-99385251D01*
X112581880Y-99541824D01*
X112581880Y-99646207D01*
X112634071Y-99802780D01*
X112947219Y-100115928D01*
X113103792Y-100168119D01*
X113208175Y-100168119D01*
X112373115Y-97349793D02*
X110911761Y-98080470D01*
X111642438Y-96619116D01*
X111547972Y-102141469D02*
X111339207Y-102037086D01*
X111078251Y-101776130D01*
X111026060Y-101619557D01*
X111026060Y-101515174D01*
X111078251Y-101358601D01*
X111182634Y-101254218D01*
X111339207Y-101202027D01*
X111443590Y-101202027D01*
X111600163Y-101254218D01*
X111861119Y-101410792D01*
X112017693Y-101462983D01*
X112122075Y-101462983D01*
X112278649Y-101410792D01*
X112383032Y-101306409D01*
X112435223Y-101149836D01*
X112435223Y-101045453D01*
X112383032Y-100888880D01*
X112122075Y-100627924D01*
X111913311Y-100523541D01*
X109877853Y-100366967D02*
X109877853Y-100471350D01*
X109982236Y-100680115D01*
X110086618Y-100784497D01*
X110295383Y-100888880D01*
X110504148Y-100888880D01*
X110660721Y-100836688D01*
X110921678Y-100680115D01*
X111078251Y-100523541D01*
X111234825Y-100262585D01*
X111287016Y-100106011D01*
X111287016Y-99897247D01*
X111182634Y-99688482D01*
X111078251Y-99584099D01*
X110869486Y-99479717D01*
X110765104Y-99479717D01*
X108781838Y-99479717D02*
X109303750Y-100001629D01*
X110399765Y-98905613D01*
X109835578Y-103958245D02*
X109626813Y-103853863D01*
X109365857Y-103592906D01*
X109313666Y-103436333D01*
X109313666Y-103331950D01*
X109365857Y-103175377D01*
X109470240Y-103070994D01*
X109626813Y-103018803D01*
X109731196Y-103018803D01*
X109887770Y-103070994D01*
X110148726Y-103227568D01*
X110305299Y-103279759D01*
X110409682Y-103279759D01*
X110566255Y-103227568D01*
X110670638Y-103123186D01*
X110722829Y-102966612D01*
X110722829Y-102862229D01*
X110670638Y-102705656D01*
X110409682Y-102444700D01*
X110200917Y-102340317D01*
X108687372Y-102914421D02*
X109783387Y-101818405D01*
X109522431Y-101557449D01*
X109313666Y-101453067D01*
X109104901Y-101453067D01*
X108948328Y-101505258D01*
X108687372Y-101661832D01*
X108530798Y-101818405D01*
X108374224Y-102079361D01*
X108322033Y-102235935D01*
X108322033Y-102444700D01*
X108426416Y-102653465D01*
X108687372Y-102914421D01*
X107956695Y-101557449D02*
X107434782Y-101035537D01*
X107747930Y-101974979D02*
X108478607Y-100513625D01*
X107017253Y-101244302D01*
X112089717Y-109741554D02*
X111880952Y-109637171D01*
X111619996Y-109376215D01*
X111567805Y-109219641D01*
X111567805Y-109115259D01*
X111619996Y-108958685D01*
X111724378Y-108854303D01*
X111880952Y-108802112D01*
X111985334Y-108802112D01*
X112141908Y-108854303D01*
X112402864Y-109010877D01*
X112559438Y-109063068D01*
X112663820Y-109063068D01*
X112820394Y-109010877D01*
X112924776Y-108906494D01*
X112976968Y-108749920D01*
X112976968Y-108645538D01*
X112924776Y-108488964D01*
X112663820Y-108228008D01*
X112455055Y-108123626D01*
X110941510Y-108697729D02*
X112037526Y-107601714D01*
X111515614Y-108123626D02*
X110889319Y-107497331D01*
X110315216Y-108071435D02*
X111411231Y-106975419D01*
X110889319Y-106453507D02*
X110002068Y-107340758D01*
X109845495Y-107392949D01*
X109741112Y-107392949D01*
X109584539Y-107340758D01*
X109375774Y-107131993D01*
X109323582Y-106975419D01*
X109323582Y-106871037D01*
X109375774Y-106714463D01*
X110263024Y-105827212D01*
X109897686Y-105461874D02*
X109271391Y-104835579D01*
X108488523Y-106244742D02*
X109584539Y-105148727D01*
X109062626Y-104626814D02*
X108436332Y-104000520D01*
X107653464Y-105409683D02*
X108749479Y-104313667D01*
X107549081Y-104157094D02*
X107183743Y-103791755D01*
X106453066Y-104209285D02*
X106974978Y-104731197D01*
X108070993Y-103635181D01*
X107549081Y-103113269D01*
X105357050Y-103113269D02*
X106244301Y-102956696D01*
X105983345Y-103739564D02*
X107079360Y-102643548D01*
X106661831Y-102226019D01*
X106505257Y-102173827D01*
X106400874Y-102173827D01*
X106244301Y-102226019D01*
X106087727Y-102382592D01*
X106035536Y-102539166D01*
X106035536Y-102643548D01*
X106087727Y-102800122D01*
X106505257Y-103217652D01*
X107454615Y-108740004D02*
X108341866Y-108583430D01*
X108080910Y-109366299D02*
X109176925Y-108270283D01*
X108759395Y-107852753D01*
X108602822Y-107800562D01*
X108498439Y-107800562D01*
X108341866Y-107852753D01*
X108185292Y-108009327D01*
X108133101Y-108165901D01*
X108133101Y-108270283D01*
X108185292Y-108426857D01*
X108602822Y-108844387D01*
X107558997Y-107696180D02*
X107193659Y-107330841D01*
X106462982Y-107748371D02*
X106984894Y-108270283D01*
X108080910Y-107174268D01*
X107558997Y-106652356D01*
X106097643Y-107278650D02*
X105888879Y-107174268D01*
X105627923Y-106913312D01*
X105575731Y-106756738D01*
X105575731Y-106652356D01*
X105627923Y-106495782D01*
X105732305Y-106391399D01*
X105888879Y-106339208D01*
X105993261Y-106339208D01*
X106149835Y-106391399D01*
X106410791Y-106547973D01*
X106567364Y-106600164D01*
X106671747Y-106600164D01*
X106828320Y-106547973D01*
X106932703Y-106443591D01*
X106984894Y-106287017D01*
X106984894Y-106182635D01*
X106932703Y-106026061D01*
X106671747Y-105765105D01*
X106462982Y-105660722D01*
X105523540Y-105660722D02*
X105158202Y-105295384D01*
X104427525Y-105712914D02*
X104949437Y-106234826D01*
X106045452Y-105138810D01*
X105523540Y-104616898D01*
X105210393Y-104303751D02*
X104584098Y-103677456D01*
X103801230Y-105086619D02*
X104897246Y-103990604D01*
X105168118Y-107895028D02*
X105324692Y-107947220D01*
X105481265Y-108103793D01*
X105585648Y-108312558D01*
X105585648Y-108521323D01*
X105533456Y-108677897D01*
X105376883Y-108938853D01*
X105220309Y-109095426D01*
X104959353Y-109252000D01*
X104802779Y-109304191D01*
X104594015Y-109304191D01*
X104385250Y-109199809D01*
X104280867Y-109095426D01*
X104176485Y-108886661D01*
X104176485Y-108782279D01*
X104541823Y-108416941D01*
X104750588Y-108625705D01*
X103602381Y-108416941D02*
X104698397Y-107320925D01*
X102976087Y-107790646D01*
X104072102Y-106694630D01*
X102454175Y-107268734D02*
X103550190Y-106172718D01*
X103289234Y-105911762D01*
X103080469Y-105807380D01*
X102871704Y-105807380D01*
X102715131Y-105859571D01*
X102454175Y-106016145D01*
X102297601Y-106172718D01*
X102141027Y-106433674D01*
X102088836Y-106590248D01*
X102088836Y-106799013D01*
X102193219Y-107007778D01*
X102454175Y-107268734D01*
X100678691Y-92305370D02*
X100000206Y-91626884D01*
X99948014Y-92409752D01*
X99791441Y-92253178D01*
X99634867Y-92200987D01*
X99530485Y-92200987D01*
X99373911Y-92253178D01*
X99112955Y-92514134D01*
X99060764Y-92670708D01*
X99060764Y-92775090D01*
X99112955Y-92931664D01*
X99426102Y-93244811D01*
X99582676Y-93297003D01*
X99687058Y-93297003D01*
X98538852Y-92148796D02*
X98434469Y-92148796D01*
X98434469Y-92253178D01*
X98538852Y-92253178D01*
X98538852Y-92148796D01*
X98434469Y-92253178D01*
X99112955Y-90739633D02*
X98434469Y-90061147D01*
X98382278Y-90844016D01*
X98225704Y-90687442D01*
X98069131Y-90635251D01*
X97964748Y-90635251D01*
X97808175Y-90687442D01*
X97547219Y-90948398D01*
X97495027Y-91104972D01*
X97495027Y-91209354D01*
X97547219Y-91365928D01*
X97860366Y-91679075D01*
X98016940Y-91731266D01*
X98121322Y-91731266D01*
X97286263Y-88912941D02*
X95824909Y-89643618D01*
X96555586Y-88182264D01*
X97818091Y-95061588D02*
X97609326Y-94957205D01*
X97348370Y-94696249D01*
X97296179Y-94539675D01*
X97296179Y-94435293D01*
X97348370Y-94278719D01*
X97452752Y-94174337D01*
X97609326Y-94122146D01*
X97713709Y-94122146D01*
X97870282Y-94174337D01*
X98131238Y-94330911D01*
X98287812Y-94383102D01*
X98392194Y-94383102D01*
X98548768Y-94330911D01*
X98653150Y-94226528D01*
X98705342Y-94069955D01*
X98705342Y-93965572D01*
X98653150Y-93808998D01*
X98392194Y-93548042D01*
X98183429Y-93443660D01*
X96147972Y-93287086D02*
X96147972Y-93391469D01*
X96252355Y-93600234D01*
X96356737Y-93704616D01*
X96565502Y-93808998D01*
X96774267Y-93808998D01*
X96930840Y-93756807D01*
X97191796Y-93600234D01*
X97348370Y-93443660D01*
X97504944Y-93182704D01*
X97557135Y-93026130D01*
X97557135Y-92817365D01*
X97452752Y-92608601D01*
X97348370Y-92504218D01*
X97139605Y-92399836D01*
X97035223Y-92399836D01*
X95051957Y-92399836D02*
X95573869Y-92921748D01*
X96669884Y-91825732D01*
X96053506Y-96826173D02*
X95844741Y-96721790D01*
X95583785Y-96460834D01*
X95531594Y-96304260D01*
X95531594Y-96199878D01*
X95583785Y-96043304D01*
X95688167Y-95938922D01*
X95844741Y-95886731D01*
X95949124Y-95886731D01*
X96105697Y-95938922D01*
X96366653Y-96095496D01*
X96523227Y-96147687D01*
X96627609Y-96147687D01*
X96784183Y-96095496D01*
X96888565Y-95991113D01*
X96940757Y-95834540D01*
X96940757Y-95730157D01*
X96888565Y-95573583D01*
X96627609Y-95312627D01*
X96418844Y-95208245D01*
X94905299Y-95782348D02*
X96001315Y-94686333D01*
X95740359Y-94425377D01*
X95531594Y-94320994D01*
X95322829Y-94320994D01*
X95166255Y-94373186D01*
X94905299Y-94529759D01*
X94748726Y-94686333D01*
X94592152Y-94947289D01*
X94539961Y-95103863D01*
X94539961Y-95312627D01*
X94644343Y-95521392D01*
X94905299Y-95782348D01*
X94174622Y-94425377D02*
X93652710Y-93903465D01*
X93965857Y-94842906D02*
X94696534Y-93381552D01*
X93235180Y-94112229D01*
X94288921Y-98590758D02*
X94080156Y-98486375D01*
X93819200Y-98225419D01*
X93767009Y-98068845D01*
X93767009Y-97964463D01*
X93819200Y-97807889D01*
X93923582Y-97703507D01*
X94080156Y-97651316D01*
X94184539Y-97651316D01*
X94341112Y-97703507D01*
X94602068Y-97860081D01*
X94758642Y-97912272D01*
X94863024Y-97912272D01*
X95019598Y-97860081D01*
X95123980Y-97755698D01*
X95176172Y-97599125D01*
X95176172Y-97494742D01*
X95123980Y-97338168D01*
X94863024Y-97077212D01*
X94654259Y-96972830D01*
X93140714Y-97546933D02*
X94236730Y-96450918D01*
X93714818Y-96972830D02*
X93088523Y-96346535D01*
X92514420Y-96920639D02*
X93610435Y-95824623D01*
X93088523Y-95302711D02*
X92201272Y-96189962D01*
X92044699Y-96242153D01*
X91940316Y-96242153D01*
X91783743Y-96189962D01*
X91574978Y-95981197D01*
X91522787Y-95824623D01*
X91522787Y-95720241D01*
X91574978Y-95563667D01*
X92462228Y-94676417D01*
X92096890Y-94311078D02*
X91470595Y-93684783D01*
X90687727Y-95093946D02*
X91783743Y-93997931D01*
X91261831Y-93476019D02*
X90635536Y-92849724D01*
X89852668Y-94258887D02*
X90948683Y-93162871D01*
X89748285Y-93006298D02*
X89382947Y-92640959D01*
X88652270Y-93058489D02*
X89174182Y-93580401D01*
X90270197Y-92484385D01*
X89748285Y-91962473D01*
X87556254Y-91962473D02*
X88443505Y-91805900D01*
X88182549Y-92588768D02*
X89278564Y-91492752D01*
X88861035Y-91075223D01*
X88704461Y-91023031D01*
X88600079Y-91023031D01*
X88443505Y-91075223D01*
X88286931Y-91231796D01*
X88234740Y-91388370D01*
X88234740Y-91492752D01*
X88286931Y-91649326D01*
X88704461Y-92066856D01*
X91793659Y-99729048D02*
X92680910Y-99572474D01*
X92419954Y-100355343D02*
X93515969Y-99259327D01*
X93098439Y-98841797D01*
X92941866Y-98789606D01*
X92837483Y-98789606D01*
X92680910Y-98841797D01*
X92524336Y-98998371D01*
X92472145Y-99154945D01*
X92472145Y-99259327D01*
X92524336Y-99415901D01*
X92941866Y-99833430D01*
X91898041Y-98685224D02*
X91532703Y-98319885D01*
X90802026Y-98737415D02*
X91323938Y-99259327D01*
X92419954Y-98163312D01*
X91898041Y-97641399D01*
X90436687Y-98267694D02*
X90227923Y-98163312D01*
X89966966Y-97902356D01*
X89914775Y-97745782D01*
X89914775Y-97641399D01*
X89966966Y-97484826D01*
X90071349Y-97380443D01*
X90227923Y-97328252D01*
X90332305Y-97328252D01*
X90488879Y-97380443D01*
X90749835Y-97537017D01*
X90906408Y-97589208D01*
X91010791Y-97589208D01*
X91167364Y-97537017D01*
X91271747Y-97432635D01*
X91323938Y-97276061D01*
X91323938Y-97171679D01*
X91271747Y-97015105D01*
X91010791Y-96754149D01*
X90802026Y-96649766D01*
X89862584Y-96649766D02*
X89497246Y-96284428D01*
X88766569Y-96701958D02*
X89288481Y-97223870D01*
X90384496Y-96127854D01*
X89862584Y-95605942D01*
X89549437Y-95292795D02*
X88923142Y-94666500D01*
X88140274Y-96075663D02*
X89236289Y-94979648D01*
X91125089Y-100502000D02*
X91281663Y-100554191D01*
X91438237Y-100710765D01*
X91542619Y-100919530D01*
X91542619Y-101128295D01*
X91490428Y-101284868D01*
X91333854Y-101545824D01*
X91177281Y-101702398D01*
X90916325Y-101858972D01*
X90759751Y-101911163D01*
X90550986Y-101911163D01*
X90342221Y-101806780D01*
X90237839Y-101702398D01*
X90133456Y-101493633D01*
X90133456Y-101389251D01*
X90498795Y-101023912D01*
X90707560Y-101232677D01*
X89559353Y-101023912D02*
X90655369Y-99927897D01*
X88933058Y-100397618D01*
X90029074Y-99301602D01*
X88411146Y-99875705D02*
X89507162Y-98779690D01*
X89246206Y-98518734D01*
X89037441Y-98414351D01*
X88828676Y-98414351D01*
X88672102Y-98466543D01*
X88411146Y-98623116D01*
X88254573Y-98779690D01*
X88097999Y-99040646D01*
X88045808Y-99197220D01*
X88045808Y-99405984D01*
X88150190Y-99614749D01*
X88411146Y-99875705D01*
D11*
%TO.C,R4*%
X86361063Y-117625360D02*
X86260048Y-117052940D01*
X86765124Y-117221299D02*
X86058018Y-116514192D01*
X85788643Y-116783566D01*
X85754972Y-116884581D01*
X85754972Y-116951925D01*
X85788643Y-117052940D01*
X85889659Y-117153955D01*
X85990674Y-117187627D01*
X86058018Y-117187627D01*
X86159033Y-117153955D01*
X86428407Y-116884581D01*
X85283567Y-117760047D02*
X85754972Y-118231452D01*
X85182552Y-117322314D02*
X85855987Y-117659032D01*
X85418254Y-118096765D01*
%TO.C,R3*%
X75861063Y-78135232D02*
X75760048Y-77562812D01*
X76265124Y-77731171D02*
X75558018Y-77024064D01*
X75288643Y-77293438D01*
X75254972Y-77394453D01*
X75254972Y-77461797D01*
X75288643Y-77562812D01*
X75389659Y-77663827D01*
X75490674Y-77697499D01*
X75558018Y-77697499D01*
X75659033Y-77663827D01*
X75928407Y-77394453D01*
X74918254Y-77663827D02*
X74480521Y-78101560D01*
X74985598Y-78135232D01*
X74884582Y-78236247D01*
X74850911Y-78337263D01*
X74850911Y-78404606D01*
X74884582Y-78505621D01*
X75052941Y-78673980D01*
X75153956Y-78707652D01*
X75221300Y-78707652D01*
X75322315Y-78673980D01*
X75524346Y-78471950D01*
X75558018Y-78370934D01*
X75558018Y-78303591D01*
%TO.C,R2*%
X71191319Y-78135232D02*
X71090304Y-77562812D01*
X71595380Y-77731171D02*
X70888274Y-77024064D01*
X70618899Y-77293438D01*
X70585228Y-77394453D01*
X70585228Y-77461797D01*
X70618899Y-77562812D01*
X70719915Y-77663827D01*
X70820930Y-77697499D01*
X70888274Y-77697499D01*
X70989289Y-77663827D01*
X71258663Y-77394453D01*
X70282182Y-77764843D02*
X70214838Y-77764843D01*
X70113823Y-77798514D01*
X69945464Y-77966873D01*
X69911793Y-78067889D01*
X69911793Y-78135232D01*
X69945464Y-78236247D01*
X70012808Y-78303591D01*
X70147495Y-78370934D01*
X70955617Y-78370934D01*
X70517884Y-78808667D01*
%TO.C,R1*%
X97166666Y-78232380D02*
X97500000Y-77756190D01*
X97738095Y-78232380D02*
X97738095Y-77232380D01*
X97357142Y-77232380D01*
X97261904Y-77280000D01*
X97214285Y-77327619D01*
X97166666Y-77422857D01*
X97166666Y-77565714D01*
X97214285Y-77660952D01*
X97261904Y-77708571D01*
X97357142Y-77756190D01*
X97738095Y-77756190D01*
X96214285Y-78232380D02*
X96785714Y-78232380D01*
X96500000Y-78232380D02*
X96500000Y-77232380D01*
X96595238Y-77375238D01*
X96690476Y-77470476D01*
X96785714Y-77518095D01*
%TO.C,SW1*%
X63734223Y-93848605D02*
X63666880Y-93983292D01*
X63498521Y-94151651D01*
X63397506Y-94185323D01*
X63330162Y-94185323D01*
X63229147Y-94151651D01*
X63161804Y-94084308D01*
X63128132Y-93983292D01*
X63128132Y-93915949D01*
X63161804Y-93814934D01*
X63262819Y-93646575D01*
X63296491Y-93545560D01*
X63296491Y-93478216D01*
X63262819Y-93377201D01*
X63195475Y-93309857D01*
X63094460Y-93276186D01*
X63027117Y-93276186D01*
X62926101Y-93309857D01*
X62757743Y-93478216D01*
X62690399Y-93612903D01*
X62421025Y-93814934D02*
X62959773Y-94690399D01*
X62320010Y-94320010D01*
X62690399Y-94959773D01*
X61814934Y-94421025D01*
X61882277Y-95767895D02*
X62286338Y-95363834D01*
X62084308Y-95565865D02*
X61377201Y-94858758D01*
X61545560Y-94892430D01*
X61680247Y-94892430D01*
X61781262Y-94858758D01*
%TO.C,J1*%
X78317289Y-96361305D02*
X78822365Y-95856229D01*
X78889709Y-95721542D01*
X78889709Y-95586855D01*
X78822365Y-95452168D01*
X78755022Y-95384825D01*
X79731503Y-96361305D02*
X79327442Y-95957244D01*
X79529472Y-96159275D02*
X78822365Y-96866382D01*
X78856037Y-96698023D01*
X78856037Y-96563336D01*
X78822365Y-96462321D01*
X64469782Y-102093921D02*
X65277904Y-102902043D01*
X72247956Y-109872095D02*
X73056078Y-110680217D01*
X73056078Y-109872095D02*
X72247956Y-110680217D01*
%TO.C,J3*%
X99833223Y-100569103D02*
X100338299Y-101074179D01*
X100472986Y-101141523D01*
X100607673Y-101141523D01*
X100742360Y-101074179D01*
X100809703Y-101006836D01*
X99563849Y-100838477D02*
X99126116Y-101276210D01*
X99631192Y-101309882D01*
X99530177Y-101410897D01*
X99496505Y-101511912D01*
X99496505Y-101579256D01*
X99530177Y-101680271D01*
X99698536Y-101848630D01*
X99799551Y-101882301D01*
X99866894Y-101882301D01*
X99967910Y-101848630D01*
X100169940Y-101646599D01*
X100203612Y-101545584D01*
X100203612Y-101478240D01*
%TO.C,J2*%
X102449161Y-96816590D02*
X102954237Y-97321666D01*
X103088924Y-97389010D01*
X103223611Y-97389010D01*
X103358298Y-97321666D01*
X103425641Y-97254323D01*
X102213458Y-97186979D02*
X102146115Y-97186979D01*
X102045100Y-97220651D01*
X101876741Y-97389010D01*
X101843069Y-97490025D01*
X101843069Y-97557369D01*
X101876741Y-97658384D01*
X101944084Y-97725727D01*
X102078771Y-97793071D01*
X102886893Y-97793071D01*
X102449161Y-98230804D01*
D12*
%TO.C,R4*%
X81949390Y-119983057D02*
X79516943Y-117550610D01*
X80245263Y-119254737D02*
X80733167Y-118766833D01*
X87754737Y-111745263D02*
X87266833Y-112233167D01*
X86050610Y-111016943D02*
X88483057Y-113449390D01*
X79516943Y-117550610D02*
X86050610Y-111016943D01*
X88483057Y-113449390D02*
X81949390Y-119983057D01*
%TO.C,R3*%
X77983057Y-73959262D02*
X71449390Y-80492929D01*
X69016943Y-78060482D02*
X75550610Y-71526815D01*
X75550610Y-71526815D02*
X77983057Y-73959262D01*
X77254737Y-72255135D02*
X76766833Y-72743039D01*
X69745263Y-79764609D02*
X70233167Y-79276705D01*
X71449390Y-80492929D02*
X69016943Y-78060482D01*
%TO.C,R2*%
X73313313Y-73959262D02*
X66779646Y-80492929D01*
X64347199Y-78060482D02*
X70880866Y-71526815D01*
X70880866Y-71526815D02*
X73313313Y-73959262D01*
X72584993Y-72255135D02*
X72097089Y-72743039D01*
X65075519Y-79764609D02*
X65563423Y-79276705D01*
X66779646Y-80492929D02*
X64347199Y-78060482D01*
%TO.C,R1*%
X101620000Y-78780000D02*
X101620000Y-82220000D01*
X102310000Y-80500000D02*
X101620000Y-80500000D01*
X91690000Y-80500000D02*
X92380000Y-80500000D01*
X92380000Y-82220000D02*
X92380000Y-78780000D01*
X101620000Y-82220000D02*
X92380000Y-82220000D01*
X92380000Y-78780000D02*
X101620000Y-78780000D01*
%TO.C,SW1*%
X61444544Y-88494797D02*
X62505205Y-89555457D01*
X63389088Y-92207107D02*
X60207108Y-95389088D01*
X57555457Y-94505205D02*
X56494797Y-93444544D01*
X55610913Y-90792894D02*
X58792894Y-87610913D01*
%TO.C,J1*%
X78968502Y-104171805D02*
X78551309Y-103754612D01*
X80538279Y-102602028D02*
X80121086Y-102184835D01*
X78551309Y-103754612D02*
X75086485Y-107219435D01*
X74450089Y-93543990D02*
X72965165Y-95028914D01*
X71395388Y-96598691D02*
X70978195Y-96181498D01*
X72965165Y-95028914D02*
X72547972Y-94611721D01*
X71395388Y-96598691D02*
X67930565Y-100063515D01*
X81606010Y-100699911D02*
X80121086Y-102184835D01*
X75086485Y-107219435D02*
X67930565Y-100063515D01*
X81606010Y-100699911D02*
X74450089Y-93543990D01*
X78968502Y-104171805D02*
G75*
G03*
X80538279Y-102602028I784888J784889D01*
G01*
X72547971Y-94611722D02*
G75*
G03*
X70978195Y-96181498I-784888J-784888D01*
G01*
%TO.C,J3*%
X91167125Y-104904341D02*
X91874232Y-104197234D01*
X103697057Y-92374409D02*
X102989950Y-93081516D01*
X104771859Y-94156318D02*
X103916260Y-93300719D01*
X102636397Y-91313749D02*
X105478966Y-94156318D01*
X91874232Y-104197234D02*
X90813571Y-103136574D01*
X105478966Y-94156318D02*
X92949034Y-106686250D01*
X89682201Y-103843681D02*
X91449968Y-102075914D01*
X92949034Y-105979144D02*
X104771859Y-94156318D01*
X92093435Y-105123544D02*
X92949034Y-105979144D01*
X102989950Y-93081516D02*
X101929290Y-92020856D01*
X91449968Y-105611448D02*
X89682201Y-103843681D01*
X103916260Y-93300719D02*
X104269813Y-92947166D01*
X90106465Y-103843681D02*
X102636397Y-91313749D01*
X91739881Y-105477098D02*
X92093435Y-105123544D01*
X92949034Y-106686250D02*
X90106465Y-103843681D01*
%TO.C,J2*%
X99595480Y-105550033D02*
X100656140Y-106610693D01*
X98669170Y-105330830D02*
X98315617Y-105684383D01*
X111135462Y-93020101D02*
X112903229Y-94787868D01*
X111418305Y-93727208D02*
X110711198Y-94434315D01*
X110491995Y-93508005D02*
X109636396Y-92652405D01*
X99949033Y-107317800D02*
X97106464Y-104475231D01*
X97813571Y-104475231D02*
X98669170Y-105330830D01*
X112478965Y-94787868D02*
X99949033Y-107317800D01*
X109636396Y-91945299D02*
X112478965Y-94787868D01*
X110711198Y-94434315D02*
X111771859Y-95494975D01*
X109636396Y-92652405D02*
X97813571Y-104475231D01*
X112903229Y-94787868D02*
X111135462Y-96555635D01*
X98888373Y-106257140D02*
X99595480Y-105550033D01*
X97106464Y-104475231D02*
X109636396Y-91945299D01*
X110845549Y-93154451D02*
X110491995Y-93508005D01*
%TD*%
M02*
