%TF.GenerationSoftware,KiCad,Pcbnew,(6.0.1-0)*%
%TF.CreationDate,2022-09-26T15:58:14+02:00*%
%TF.ProjectId,wifi_camera,77696669-5f63-4616-9d65-72612e6b6963,rev?*%
%TF.SameCoordinates,Original*%
%TF.FileFunction,Copper,L1,Top*%
%TF.FilePolarity,Positive*%
%FSLAX46Y46*%
G04 Gerber Fmt 4.6, Leading zero omitted, Abs format (unit mm)*
G04 Created by KiCad (PCBNEW (6.0.1-0)) date 2022-09-26 15:58:14*
%MOMM*%
%LPD*%
G01*
G04 APERTURE LIST*
G04 Aperture macros list*
%AMRoundRect*
0 Rectangle with rounded corners*
0 $1 Rounding radius*
0 $2 $3 $4 $5 $6 $7 $8 $9 X,Y pos of 4 corners*
0 Add a 4 corners polygon primitive as box body*
4,1,4,$2,$3,$4,$5,$6,$7,$8,$9,$2,$3,0*
0 Add four circle primitives for the rounded corners*
1,1,$1+$1,$2,$3*
1,1,$1+$1,$4,$5*
1,1,$1+$1,$6,$7*
1,1,$1+$1,$8,$9*
0 Add four rect primitives between the rounded corners*
20,1,$1+$1,$2,$3,$4,$5,0*
20,1,$1+$1,$4,$5,$6,$7,0*
20,1,$1+$1,$6,$7,$8,$9,0*
20,1,$1+$1,$8,$9,$2,$3,0*%
%AMHorizOval*
0 Thick line with rounded ends*
0 $1 width*
0 $2 $3 position (X,Y) of the first rounded end (center of the circle)*
0 $4 $5 position (X,Y) of the second rounded end (center of the circle)*
0 Add line between two ends*
20,1,$1,$2,$3,$4,$5,0*
0 Add two circle primitives to create the rounded ends*
1,1,$1,$2,$3*
1,1,$1,$4,$5*%
%AMRotRect*
0 Rectangle, with rotation*
0 The origin of the aperture is its center*
0 $1 length*
0 $2 width*
0 $3 Rotation angle, in degrees counterclockwise*
0 Add horizontal line*
21,1,$1,$2,0,0,$3*%
G04 Aperture macros list end*
%TA.AperFunction,ComponentPad*%
%ADD10C,1.600000*%
%TD*%
%TA.AperFunction,ComponentPad*%
%ADD11HorizOval,1.600000X0.000000X0.000000X0.000000X0.000000X0*%
%TD*%
%TA.AperFunction,ComponentPad*%
%ADD12O,1.600000X1.600000*%
%TD*%
%TA.AperFunction,ComponentPad*%
%ADD13C,2.000000*%
%TD*%
%TA.AperFunction,ComponentPad*%
%ADD14RotRect,1.500000X1.500000X45.000000*%
%TD*%
%TA.AperFunction,ComponentPad*%
%ADD15C,1.500000*%
%TD*%
%TA.AperFunction,SMDPad,CuDef*%
%ADD16RoundRect,0.250000X0.512652X0.159099X0.159099X0.512652X-0.512652X-0.159099X-0.159099X-0.512652X0*%
%TD*%
%TA.AperFunction,ComponentPad*%
%ADD17C,1.400000*%
%TD*%
%TA.AperFunction,ComponentPad*%
%ADD18RotRect,3.500000X3.500000X135.000000*%
%TD*%
%TA.AperFunction,ComponentPad*%
%ADD19C,3.500000*%
%TD*%
%TA.AperFunction,ComponentPad*%
%ADD20RoundRect,0.250000X0.088388X-0.936916X0.936916X-0.088388X-0.088388X0.936916X-0.936916X0.088388X0*%
%TD*%
%TA.AperFunction,ComponentPad*%
%ADD21HorizOval,1.700000X-0.088388X0.088388X0.088388X-0.088388X0*%
%TD*%
%TA.AperFunction,ComponentPad*%
%ADD22RoundRect,0.250000X-0.088388X0.936916X-0.936916X0.088388X0.088388X-0.936916X0.936916X-0.088388X0*%
%TD*%
%TA.AperFunction,ViaPad*%
%ADD23C,0.800000*%
%TD*%
%TA.AperFunction,Conductor*%
%ADD24C,0.250000*%
%TD*%
%TA.AperFunction,Conductor*%
%ADD25C,1.000000*%
%TD*%
G04 APERTURE END LIST*
D10*
%TO.P,R4,1*%
%TO.N,+3V3*%
X79509872Y-119990128D03*
D11*
%TO.P,R4,2*%
%TO.N,shutter*%
X88490128Y-111009872D03*
%TD*%
%TO.P,R3,2*%
%TO.N,scl*%
X77990128Y-71519744D03*
D10*
%TO.P,R3,1*%
%TO.N,+3V3*%
X69009872Y-80500000D03*
%TD*%
D11*
%TO.P,R2,2*%
%TO.N,sda*%
X73320384Y-71519744D03*
D10*
%TO.P,R2,1*%
%TO.N,+3V3*%
X64340128Y-80500000D03*
%TD*%
%TO.P,R1,1*%
%TO.N,rst*%
X103350000Y-80500000D03*
D12*
%TO.P,R1,2*%
%TO.N,+3V3*%
X90650000Y-80500000D03*
%TD*%
D13*
%TO.P,SW1,1,1*%
%TO.N,rst*%
X63389088Y-90792894D03*
X58792894Y-95389088D03*
%TO.P,SW1,2,2*%
%TO.N,GND*%
X60207108Y-87610913D03*
X55610913Y-92207107D03*
%TD*%
D14*
%TO.P,U1,1,GND*%
%TO.N,GND*%
X46181981Y-62570134D03*
D15*
%TO.P,U1,2,IO2*%
%TO.N,sda*%
X47978032Y-60774083D03*
%TO.P,U1,3,IO0*%
%TO.N,scl*%
X49774083Y-58978032D03*
%TO.P,U1,4,RXD*%
%TO.N,shutter*%
X51570134Y-57181981D03*
%TO.P,U1,5,TXD*%
%TO.N,unconnected-(U1-Pad5)*%
X47978032Y-64366185D03*
%TO.P,U1,6,EN*%
%TO.N,unconnected-(U1-Pad6)*%
X49774083Y-62570134D03*
%TO.P,U1,7,~{RST}*%
%TO.N,rst*%
X51570134Y-60774083D03*
%TO.P,U1,8,VCC*%
%TO.N,+3V3*%
X53366185Y-58978032D03*
%TD*%
D14*
%TO.P,U3,1,GND*%
%TO.N,GND*%
X46181981Y-114570134D03*
D15*
%TO.P,U3,2,IO2*%
%TO.N,sda*%
X47978032Y-112774083D03*
%TO.P,U3,3,IO0*%
%TO.N,scl*%
X49774083Y-110978032D03*
%TO.P,U3,4,RXD*%
%TO.N,shutter*%
X51570134Y-109181981D03*
%TO.P,U3,5,TXD*%
%TO.N,unconnected-(U3-Pad5)*%
X47978032Y-116366185D03*
%TO.P,U3,6,EN*%
%TO.N,unconnected-(U3-Pad6)*%
X49774083Y-114570134D03*
%TO.P,U3,7,~{RST}*%
%TO.N,rst*%
X51570134Y-112774083D03*
%TO.P,U3,8,VCC*%
%TO.N,+3V3*%
X53366185Y-110978032D03*
%TD*%
D14*
%TO.P,U14,1,GND*%
%TO.N,GND*%
X124181981Y-88570134D03*
D15*
%TO.P,U14,2,IO2*%
%TO.N,sda*%
X125978032Y-86774083D03*
%TO.P,U14,3,IO0*%
%TO.N,scl*%
X127774083Y-84978032D03*
%TO.P,U14,4,RXD*%
%TO.N,shutter*%
X129570134Y-83181981D03*
%TO.P,U14,5,TXD*%
%TO.N,unconnected-(U14-Pad5)*%
X125978032Y-90366185D03*
%TO.P,U14,6,EN*%
%TO.N,unconnected-(U14-Pad6)*%
X127774083Y-88570134D03*
%TO.P,U14,7,~{RST}*%
%TO.N,rst*%
X129570134Y-86774083D03*
%TO.P,U14,8,VCC*%
%TO.N,+3V3*%
X131366185Y-84978032D03*
%TD*%
D14*
%TO.P,U12,1,GND*%
%TO.N,GND*%
X98181981Y-140570134D03*
D15*
%TO.P,U12,2,IO2*%
%TO.N,sda*%
X99978032Y-138774083D03*
%TO.P,U12,3,IO0*%
%TO.N,scl*%
X101774083Y-136978032D03*
%TO.P,U12,4,RXD*%
%TO.N,shutter*%
X103570134Y-135181981D03*
%TO.P,U12,5,TXD*%
%TO.N,unconnected-(U12-Pad5)*%
X99978032Y-142366185D03*
%TO.P,U12,6,EN*%
%TO.N,unconnected-(U12-Pad6)*%
X101774083Y-140570134D03*
%TO.P,U12,7,~{RST}*%
%TO.N,rst*%
X103570134Y-138774083D03*
%TO.P,U12,8,VCC*%
%TO.N,+3V3*%
X105366185Y-136978032D03*
%TD*%
D14*
%TO.P,U10,1,GND*%
%TO.N,GND*%
X98181981Y-88570134D03*
D15*
%TO.P,U10,2,IO2*%
%TO.N,sda*%
X99978032Y-86774083D03*
%TO.P,U10,3,IO0*%
%TO.N,scl*%
X101774083Y-84978032D03*
%TO.P,U10,4,RXD*%
%TO.N,shutter*%
X103570134Y-83181981D03*
%TO.P,U10,5,TXD*%
%TO.N,unconnected-(U10-Pad5)*%
X99978032Y-90366185D03*
%TO.P,U10,6,EN*%
%TO.N,unconnected-(U10-Pad6)*%
X101774083Y-88570134D03*
%TO.P,U10,7,~{RST}*%
%TO.N,rst*%
X103570134Y-86774083D03*
%TO.P,U10,8,VCC*%
%TO.N,+3V3*%
X105366185Y-84978032D03*
%TD*%
D14*
%TO.P,U16,1,GND*%
%TO.N,GND*%
X124181981Y-140570134D03*
D15*
%TO.P,U16,2,IO2*%
%TO.N,sda*%
X125978032Y-138774083D03*
%TO.P,U16,3,IO0*%
%TO.N,scl*%
X127774083Y-136978032D03*
%TO.P,U16,4,RXD*%
%TO.N,shutter*%
X129570134Y-135181981D03*
%TO.P,U16,5,TXD*%
%TO.N,unconnected-(U16-Pad5)*%
X125978032Y-142366185D03*
%TO.P,U16,6,EN*%
%TO.N,unconnected-(U16-Pad6)*%
X127774083Y-140570134D03*
%TO.P,U16,7,~{RST}*%
%TO.N,rst*%
X129570134Y-138774083D03*
%TO.P,U16,8,VCC*%
%TO.N,+3V3*%
X131366185Y-136978032D03*
%TD*%
D14*
%TO.P,U13,1,GND*%
%TO.N,GND*%
X124181981Y-62570134D03*
D15*
%TO.P,U13,2,IO2*%
%TO.N,sda*%
X125978032Y-60774083D03*
%TO.P,U13,3,IO0*%
%TO.N,scl*%
X127774083Y-58978032D03*
%TO.P,U13,4,RXD*%
%TO.N,shutter*%
X129570134Y-57181981D03*
%TO.P,U13,5,TXD*%
%TO.N,unconnected-(U13-Pad5)*%
X125978032Y-64366185D03*
%TO.P,U13,6,EN*%
%TO.N,unconnected-(U13-Pad6)*%
X127774083Y-62570134D03*
%TO.P,U13,7,~{RST}*%
%TO.N,rst*%
X129570134Y-60774083D03*
%TO.P,U13,8,VCC*%
%TO.N,+3V3*%
X131366185Y-58978032D03*
%TD*%
D14*
%TO.P,U15,1,GND*%
%TO.N,GND*%
X124181981Y-114570134D03*
D15*
%TO.P,U15,2,IO2*%
%TO.N,sda*%
X125978032Y-112774083D03*
%TO.P,U15,3,IO0*%
%TO.N,scl*%
X127774083Y-110978032D03*
%TO.P,U15,4,RXD*%
%TO.N,shutter*%
X129570134Y-109181981D03*
%TO.P,U15,5,TXD*%
%TO.N,unconnected-(U15-Pad5)*%
X125978032Y-116366185D03*
%TO.P,U15,6,EN*%
%TO.N,unconnected-(U15-Pad6)*%
X127774083Y-114570134D03*
%TO.P,U15,7,~{RST}*%
%TO.N,rst*%
X129570134Y-112774083D03*
%TO.P,U15,8,VCC*%
%TO.N,+3V3*%
X131366185Y-110978032D03*
%TD*%
D14*
%TO.P,U4,1,GND*%
%TO.N,GND*%
X46181981Y-140570134D03*
D15*
%TO.P,U4,2,IO2*%
%TO.N,sda*%
X47978032Y-138774083D03*
%TO.P,U4,3,IO0*%
%TO.N,scl*%
X49774083Y-136978032D03*
%TO.P,U4,4,RXD*%
%TO.N,shutter*%
X51570134Y-135181981D03*
%TO.P,U4,5,TXD*%
%TO.N,unconnected-(U4-Pad5)*%
X47978032Y-142366185D03*
%TO.P,U4,6,EN*%
%TO.N,unconnected-(U4-Pad6)*%
X49774083Y-140570134D03*
%TO.P,U4,7,~{RST}*%
%TO.N,rst*%
X51570134Y-138774083D03*
%TO.P,U4,8,VCC*%
%TO.N,+3V3*%
X53366185Y-136978032D03*
%TD*%
D14*
%TO.P,U7,1,GND*%
%TO.N,GND*%
X72181981Y-114570134D03*
D15*
%TO.P,U7,2,IO2*%
%TO.N,sda*%
X73978032Y-112774083D03*
%TO.P,U7,3,IO0*%
%TO.N,scl*%
X75774083Y-110978032D03*
%TO.P,U7,4,RXD*%
%TO.N,shutter*%
X77570134Y-109181981D03*
%TO.P,U7,5,TXD*%
%TO.N,unconnected-(U7-Pad5)*%
X73978032Y-116366185D03*
%TO.P,U7,6,EN*%
%TO.N,unconnected-(U7-Pad6)*%
X75774083Y-114570134D03*
%TO.P,U7,7,~{RST}*%
%TO.N,rst*%
X77570134Y-112774083D03*
%TO.P,U7,8,VCC*%
%TO.N,+3V3*%
X79366185Y-110978032D03*
%TD*%
D14*
%TO.P,U6,1,GND*%
%TO.N,GND*%
X72181981Y-88570134D03*
D15*
%TO.P,U6,2,IO2*%
%TO.N,sda*%
X73978032Y-86774083D03*
%TO.P,U6,3,IO0*%
%TO.N,scl*%
X75774083Y-84978032D03*
%TO.P,U6,4,RXD*%
%TO.N,shutter*%
X77570134Y-83181981D03*
%TO.P,U6,5,TXD*%
%TO.N,unconnected-(U6-Pad5)*%
X73978032Y-90366185D03*
%TO.P,U6,6,EN*%
%TO.N,unconnected-(U6-Pad6)*%
X75774083Y-88570134D03*
%TO.P,U6,7,~{RST}*%
%TO.N,rst*%
X77570134Y-86774083D03*
%TO.P,U6,8,VCC*%
%TO.N,+3V3*%
X79366185Y-84978032D03*
%TD*%
D16*
%TO.P,C4,1*%
%TO.N,+3V3*%
X66671751Y-109671751D03*
%TO.P,C4,2*%
%TO.N,GND*%
X65328249Y-108328249D03*
%TD*%
D14*
%TO.P,U5,1,GND*%
%TO.N,GND*%
X72181981Y-62570134D03*
D15*
%TO.P,U5,2,IO2*%
%TO.N,sda*%
X73978032Y-60774083D03*
%TO.P,U5,3,IO0*%
%TO.N,scl*%
X75774083Y-58978032D03*
%TO.P,U5,4,RXD*%
%TO.N,shutter*%
X77570134Y-57181981D03*
%TO.P,U5,5,TXD*%
%TO.N,unconnected-(U5-Pad5)*%
X73978032Y-64366185D03*
%TO.P,U5,6,EN*%
%TO.N,unconnected-(U5-Pad6)*%
X75774083Y-62570134D03*
%TO.P,U5,7,~{RST}*%
%TO.N,rst*%
X77570134Y-60774083D03*
%TO.P,U5,8,VCC*%
%TO.N,+3V3*%
X79366185Y-58978032D03*
%TD*%
D14*
%TO.P,U2,1,GND*%
%TO.N,GND*%
X46181981Y-88570134D03*
D15*
%TO.P,U2,2,IO2*%
%TO.N,sda*%
X47978032Y-86774083D03*
%TO.P,U2,3,IO0*%
%TO.N,scl*%
X49774083Y-84978032D03*
%TO.P,U2,4,RXD*%
%TO.N,shutter*%
X51570134Y-83181981D03*
%TO.P,U2,5,TXD*%
%TO.N,unconnected-(U2-Pad5)*%
X47978032Y-90366185D03*
%TO.P,U2,6,EN*%
%TO.N,unconnected-(U2-Pad6)*%
X49774083Y-88570134D03*
%TO.P,U2,7,~{RST}*%
%TO.N,rst*%
X51570134Y-86774083D03*
%TO.P,U2,8,VCC*%
%TO.N,+3V3*%
X53366185Y-84978032D03*
%TD*%
D14*
%TO.P,U11,1,GND*%
%TO.N,GND*%
X98181981Y-114570134D03*
D15*
%TO.P,U11,2,IO2*%
%TO.N,sda*%
X99978032Y-112774083D03*
%TO.P,U11,3,IO0*%
%TO.N,scl*%
X101774083Y-110978032D03*
%TO.P,U11,4,RXD*%
%TO.N,shutter*%
X103570134Y-109181981D03*
%TO.P,U11,5,TXD*%
%TO.N,unconnected-(U11-Pad5)*%
X99978032Y-116366185D03*
%TO.P,U11,6,EN*%
%TO.N,unconnected-(U11-Pad6)*%
X101774083Y-114570134D03*
%TO.P,U11,7,~{RST}*%
%TO.N,rst*%
X103570134Y-112774083D03*
%TO.P,U11,8,VCC*%
%TO.N,+3V3*%
X105366185Y-110978032D03*
%TD*%
D14*
%TO.P,U9,1,GND*%
%TO.N,GND*%
X98181981Y-62570134D03*
D15*
%TO.P,U9,2,IO2*%
%TO.N,sda*%
X99978032Y-60774083D03*
%TO.P,U9,3,IO0*%
%TO.N,scl*%
X101774083Y-58978032D03*
%TO.P,U9,4,RXD*%
%TO.N,shutter*%
X103570134Y-57181981D03*
%TO.P,U9,5,TXD*%
%TO.N,unconnected-(U9-Pad5)*%
X99978032Y-64366185D03*
%TO.P,U9,6,EN*%
%TO.N,unconnected-(U9-Pad6)*%
X101774083Y-62570134D03*
%TO.P,U9,7,~{RST}*%
%TO.N,rst*%
X103570134Y-60774083D03*
%TO.P,U9,8,VCC*%
%TO.N,+3V3*%
X105366185Y-58978032D03*
%TD*%
D14*
%TO.P,U8,1,GND*%
%TO.N,GND*%
X72181981Y-140570134D03*
D15*
%TO.P,U8,2,IO2*%
%TO.N,sda*%
X73978032Y-138774083D03*
%TO.P,U8,3,IO0*%
%TO.N,scl*%
X75774083Y-136978032D03*
%TO.P,U8,4,RXD*%
%TO.N,shutter*%
X77570134Y-135181981D03*
%TO.P,U8,5,TXD*%
%TO.N,unconnected-(U8-Pad5)*%
X73978032Y-142366185D03*
%TO.P,U8,6,EN*%
%TO.N,unconnected-(U8-Pad6)*%
X75774083Y-140570134D03*
%TO.P,U8,7,~{RST}*%
%TO.N,rst*%
X77570134Y-138774083D03*
%TO.P,U8,8,VCC*%
%TO.N,+3V3*%
X79366185Y-136978032D03*
%TD*%
D17*
%TO.P,J1,*%
%TO.N,*%
X79647324Y-103280850D03*
X71869149Y-95502676D03*
D18*
%TO.P,J1,1,Pin_1*%
%TO.N,GND*%
X66919402Y-104695064D03*
D19*
%TO.P,J1,2,Pin_2*%
%TO.N,+3V3*%
X70454936Y-108230598D03*
%TD*%
D20*
%TO.P,J3,1,Pin_1*%
%TO.N,GND*%
X93585430Y-103631549D03*
D21*
%TO.P,J3,2,Pin_2*%
%TO.N,rst*%
X95353197Y-101863782D03*
%TO.P,J3,3,Pin_3*%
%TO.N,shutter*%
X97120964Y-100096015D03*
%TO.P,J3,4,Pin_4*%
%TO.N,sda*%
X98888731Y-98328248D03*
%TO.P,J3,5,Pin_5*%
%TO.N,scl*%
X100656498Y-96560481D03*
%TO.P,J3,6,Pin_6*%
%TO.N,+3V3*%
X102424265Y-94792714D03*
%TD*%
D22*
%TO.P,J2,1,Pin_1*%
%TO.N,+3V3*%
X109000000Y-95000000D03*
D21*
%TO.P,J2,2,Pin_2*%
%TO.N,scl*%
X107232233Y-96767767D03*
%TO.P,J2,3,Pin_3*%
%TO.N,sda*%
X105464466Y-98535534D03*
%TO.P,J2,4,Pin_4*%
%TO.N,shutter*%
X103696699Y-100303301D03*
%TO.P,J2,5,Pin_5*%
%TO.N,rst*%
X101928932Y-102071068D03*
%TO.P,J2,6,Pin_6*%
%TO.N,GND*%
X100161165Y-103838835D03*
%TD*%
D23*
%TO.N,+3V3*%
X78150000Y-101600000D03*
X78150000Y-100650000D03*
X78150000Y-99650000D03*
X78150000Y-98750000D03*
%TO.N,GND*%
X92650000Y-114600000D03*
X91279866Y-114570134D03*
X90279866Y-114570134D03*
%TO.N,+3V3*%
X109225000Y-107325000D03*
X108750000Y-106850000D03*
X108275000Y-106375000D03*
X106650000Y-80350000D03*
X105750000Y-79500000D03*
X105450000Y-131050000D03*
X105450000Y-132100000D03*
%TD*%
D24*
%TO.N,GND*%
X55610913Y-92207107D02*
X60207108Y-87610913D01*
X60207108Y-87610913D02*
X59889087Y-87610913D01*
X59889087Y-87610913D02*
X58929866Y-88570134D01*
%TO.N,rst*%
X58792894Y-95389088D02*
X63389088Y-90792894D01*
%TO.N,sda*%
X47978032Y-86774083D02*
X50050545Y-86774083D01*
X50050545Y-86774083D02*
X51125056Y-85699572D01*
X51125056Y-85699572D02*
X52199572Y-85699572D01*
X52199572Y-85699572D02*
X52552543Y-86052543D01*
X52552543Y-86052543D02*
X73256492Y-86052543D01*
X73256492Y-86052543D02*
X73978032Y-86774083D01*
D25*
%TO.N,GND*%
X53029866Y-88570134D02*
X58929866Y-88570134D01*
X58929866Y-88570134D02*
X72181981Y-88570134D01*
D24*
%TO.N,shutter*%
X92318019Y-109181981D02*
X88318019Y-109181981D01*
X88318019Y-109181981D02*
X77570134Y-109181981D01*
X88490128Y-111009872D02*
X88490128Y-109354090D01*
X88490128Y-109354090D02*
X88318019Y-109181981D01*
X103570134Y-109181981D02*
X92318019Y-109181981D01*
%TO.N,scl*%
X75774083Y-110978032D02*
X77846596Y-110978032D01*
X77846596Y-110978032D02*
X78921107Y-109903521D01*
X78921107Y-109903521D02*
X80596479Y-109903521D01*
X82827341Y-112134383D02*
X90865617Y-112134383D01*
X80596479Y-109903521D02*
X82827341Y-112134383D01*
X90865617Y-112134383D02*
X93096479Y-109903521D01*
X93096479Y-109903521D02*
X100699572Y-109903521D01*
X100699572Y-109903521D02*
X101774083Y-110978032D01*
%TO.N,+3V3*%
X64340128Y-80500000D02*
X70500000Y-80500000D01*
X66850000Y-80490128D02*
X73009872Y-80490128D01*
X90650000Y-80500000D02*
X89150000Y-82000000D01*
X76490128Y-80490128D02*
X73009872Y-80490128D01*
X89150000Y-82000000D02*
X78000000Y-82000000D01*
X78000000Y-82000000D02*
X76490128Y-80490128D01*
%TO.N,shutter*%
X77570134Y-83181981D02*
X103570134Y-83181981D01*
X77570134Y-83181981D02*
X51570134Y-83181981D01*
D25*
%TO.N,GND*%
X81050000Y-91900000D02*
X81475000Y-91475000D01*
X81475000Y-91475000D02*
X84379866Y-88570134D01*
D24*
%TO.N,sda*%
X73978032Y-86774083D02*
X76050545Y-86774083D01*
X90774083Y-86774083D02*
X99978032Y-86774083D01*
X76050545Y-86774083D02*
X77324628Y-85500000D01*
X77324628Y-85500000D02*
X78000000Y-85500000D01*
X78000000Y-85500000D02*
X79000000Y-86500000D01*
X79000000Y-86500000D02*
X82500000Y-86500000D01*
X84000000Y-85000000D02*
X89000000Y-85000000D01*
X89000000Y-85000000D02*
X90774083Y-86774083D01*
X82500000Y-86500000D02*
X84000000Y-85000000D01*
%TO.N,+3V3*%
X79366185Y-58978032D02*
X81671968Y-58978032D01*
X81671968Y-58978032D02*
X82000000Y-58650000D01*
D25*
%TO.N,GND*%
X46181981Y-114570134D02*
X46181981Y-104781981D01*
X46181981Y-104781981D02*
X46181981Y-88570134D01*
X66919402Y-104695064D02*
X63257005Y-108357461D01*
X63257005Y-108357461D02*
X57057461Y-108357461D01*
X53481981Y-104781981D02*
X46181981Y-104781981D01*
X57057461Y-108357461D02*
X53481981Y-104781981D01*
%TO.N,+3V3*%
X78150000Y-101600000D02*
X78150000Y-100650000D01*
X78150000Y-100650000D02*
X78150000Y-99650000D01*
X78150000Y-99650000D02*
X78150000Y-98750000D01*
X78150000Y-98750000D02*
X78150000Y-98650000D01*
X78150000Y-105150000D02*
X78150000Y-101600000D01*
X70454936Y-108230598D02*
X75069402Y-108230598D01*
X75069402Y-108230598D02*
X78150000Y-105150000D01*
X66671751Y-109671751D02*
X69013783Y-109671751D01*
X69013783Y-109671751D02*
X70454936Y-108230598D01*
%TO.N,GND*%
X65328249Y-108328249D02*
X65328249Y-106286217D01*
X65328249Y-106286217D02*
X66919402Y-104695064D01*
X124181981Y-62570134D02*
X105829866Y-62570134D01*
X99100000Y-67000000D02*
X98181981Y-66081981D01*
X105829866Y-62570134D02*
X101400000Y-67000000D01*
X101400000Y-67000000D02*
X99100000Y-67000000D01*
X98181981Y-66081981D02*
X98181981Y-62570134D01*
X73411928Y-65850000D02*
X79050000Y-65850000D01*
X79050000Y-65850000D02*
X82329866Y-62570134D01*
X72181981Y-64620053D02*
X73411928Y-65850000D01*
X72181981Y-62570134D02*
X72181981Y-64620053D01*
X82329866Y-62570134D02*
X98181981Y-62570134D01*
X67250000Y-63250000D02*
X71502115Y-63250000D01*
X71502115Y-63250000D02*
X72181981Y-62570134D01*
X60750000Y-63250000D02*
X67250000Y-63250000D01*
X91829866Y-114570134D02*
X98181981Y-114570134D01*
X91279866Y-114570134D02*
X91829866Y-114570134D01*
X90629866Y-114570134D02*
X91279866Y-114570134D01*
X90279866Y-114570134D02*
X90629866Y-114570134D01*
X98181981Y-114570134D02*
X98181981Y-116620053D01*
X108179866Y-114570134D02*
X124181981Y-114570134D01*
X98181981Y-116620053D02*
X99411928Y-117850000D01*
X99411928Y-117850000D02*
X104900000Y-117850000D01*
X104900000Y-117850000D02*
X108179866Y-114570134D01*
X73377624Y-117815696D02*
X79034304Y-117815696D01*
X72181981Y-116620053D02*
X73377624Y-117815696D01*
X79034304Y-117815696D02*
X82350000Y-114500000D01*
X82420134Y-114570134D02*
X90279866Y-114570134D01*
X72181981Y-114570134D02*
X72181981Y-116620053D01*
X82350000Y-114500000D02*
X82420134Y-114570134D01*
X46181981Y-114570134D02*
X46181981Y-116620053D01*
X46181981Y-116620053D02*
X47377624Y-117815696D01*
X47377624Y-117815696D02*
X53684304Y-117815696D01*
X53684304Y-117815696D02*
X56929866Y-114570134D01*
X56929866Y-114570134D02*
X72181981Y-114570134D01*
X98181981Y-88570134D02*
X98181981Y-90631981D01*
X104900000Y-92450000D02*
X108779866Y-88570134D01*
X98181981Y-90631981D02*
X100000000Y-92450000D01*
X100000000Y-92450000D02*
X104900000Y-92450000D01*
X108779866Y-88570134D02*
X124181981Y-88570134D01*
X72181981Y-88570134D02*
X72181981Y-90620053D01*
X72181981Y-90620053D02*
X73461928Y-91900000D01*
X73461928Y-91900000D02*
X81050000Y-91900000D01*
X84379866Y-88570134D02*
X98181981Y-88570134D01*
X46181981Y-88570134D02*
X46181981Y-90620053D01*
X46181981Y-90620053D02*
X47377624Y-91815696D01*
X47377624Y-91815696D02*
X49784304Y-91815696D01*
X49784304Y-91815696D02*
X53029866Y-88570134D01*
X46181981Y-62570134D02*
X46181981Y-64620053D01*
X46181981Y-64620053D02*
X47961928Y-66400000D01*
X47961928Y-66400000D02*
X52950000Y-66400000D01*
X52950000Y-66400000D02*
X56100000Y-63250000D01*
X56100000Y-63250000D02*
X60750000Y-63250000D01*
X46181981Y-88570134D02*
X46181981Y-62570134D01*
X46181981Y-140570134D02*
X46181981Y-114570134D01*
X48950000Y-144350000D02*
X46550000Y-144350000D01*
X71650000Y-143400000D02*
X49900000Y-143400000D01*
X46550000Y-144350000D02*
X44950000Y-142750000D01*
X49900000Y-143400000D02*
X48950000Y-144350000D01*
X44950000Y-141802115D02*
X46181981Y-140570134D01*
X44950000Y-142750000D02*
X44950000Y-141802115D01*
X72400000Y-144150000D02*
X71650000Y-143400000D01*
X74550000Y-144150000D02*
X72400000Y-144150000D01*
X98181981Y-140570134D02*
X78129866Y-140570134D01*
X71650000Y-143400000D02*
X72181981Y-142868019D01*
X78129866Y-140570134D02*
X74550000Y-144150000D01*
X72181981Y-142868019D02*
X72181981Y-140570134D01*
X124181981Y-140570134D02*
X105979866Y-140570134D01*
X105979866Y-140570134D02*
X102700000Y-143850000D01*
X102700000Y-143850000D02*
X99400000Y-143850000D01*
X99400000Y-143850000D02*
X98181981Y-142631981D01*
X98181981Y-142631981D02*
X98181981Y-140570134D01*
D24*
%TO.N,sda*%
X99978032Y-86774083D02*
X102050545Y-86774083D01*
X102050545Y-86774083D02*
X103401518Y-85423110D01*
X103401518Y-85423110D02*
X104291674Y-85423110D01*
X104291674Y-85423110D02*
X105642647Y-86774083D01*
X105642647Y-86774083D02*
X125978032Y-86774083D01*
%TO.N,scl*%
X75774083Y-84978032D02*
X77846596Y-84978032D01*
X77846596Y-84978032D02*
X79024628Y-83800000D01*
X100596051Y-83800000D02*
X101774083Y-84978032D01*
X79024628Y-83800000D02*
X100596051Y-83800000D01*
X49774083Y-84978032D02*
X51846596Y-84978032D01*
X51846596Y-84978032D02*
X52921107Y-83903521D01*
X52921107Y-83903521D02*
X74699572Y-83903521D01*
X74699572Y-83903521D02*
X75774083Y-84978032D01*
%TO.N,shutter*%
X72300000Y-111050000D02*
X60550000Y-111050000D01*
X51570134Y-109181981D02*
X58681981Y-109181981D01*
X58681981Y-109181981D02*
X60550000Y-111050000D01*
%TO.N,scl*%
X49774083Y-110978032D02*
X51846596Y-110978032D01*
X73029870Y-112150000D02*
X74201838Y-110978032D01*
X51846596Y-110978032D02*
X53018564Y-112150000D01*
X53018564Y-112150000D02*
X73029870Y-112150000D01*
X74201838Y-110978032D02*
X75774083Y-110978032D01*
%TO.N,sda*%
X73978032Y-112774083D02*
X53089723Y-112774083D01*
X53089723Y-112774083D02*
X52015212Y-113848594D01*
X50050545Y-112774083D02*
X47978032Y-112774083D01*
X52015212Y-113848594D02*
X51125056Y-113848594D01*
X51125056Y-113848594D02*
X50050545Y-112774083D01*
X99978032Y-112774083D02*
X79089723Y-112774083D01*
X79089723Y-112774083D02*
X78015212Y-111699572D01*
X78015212Y-111699572D02*
X76698594Y-111699572D01*
X76698594Y-111699572D02*
X75624083Y-112774083D01*
X75624083Y-112774083D02*
X73978032Y-112774083D01*
X125978032Y-112774083D02*
X105374083Y-112774083D01*
X99978032Y-112774083D02*
X101497621Y-112774083D01*
X101497621Y-112774083D02*
X102730986Y-111540718D01*
X102730986Y-111540718D02*
X104140718Y-111540718D01*
X104140718Y-111540718D02*
X105374083Y-112774083D01*
X99978032Y-138774083D02*
X102050545Y-138774083D01*
X104099066Y-137615718D02*
X105257431Y-138774083D01*
X102050545Y-138774083D02*
X103208910Y-137615718D01*
X103208910Y-137615718D02*
X104099066Y-137615718D01*
X105257431Y-138774083D02*
X125978032Y-138774083D01*
X73978032Y-138774083D02*
X76050545Y-138774083D01*
X77125056Y-137699572D02*
X78568136Y-137699572D01*
X76050545Y-138774083D02*
X77125056Y-137699572D01*
X78568136Y-137699572D02*
X79642647Y-138774083D01*
X79642647Y-138774083D02*
X99978032Y-138774083D01*
X73978032Y-138774083D02*
X53089723Y-138774083D01*
X50572132Y-139848594D02*
X49497621Y-138774083D01*
X53089723Y-138774083D02*
X52015212Y-139848594D01*
X52015212Y-139848594D02*
X50572132Y-139848594D01*
X49497621Y-138774083D02*
X47978032Y-138774083D01*
%TO.N,scl*%
X75774083Y-136978032D02*
X54885774Y-136978032D01*
X54885774Y-136978032D02*
X53811263Y-138052543D01*
X53811263Y-138052543D02*
X52368183Y-138052543D01*
X52368183Y-138052543D02*
X51293672Y-136978032D01*
D25*
%TO.N,+3V3*%
X109850000Y-108050000D02*
X108300000Y-106500000D01*
X109850000Y-110450000D02*
X109850000Y-108050000D01*
X105366185Y-110978032D02*
X109321968Y-110978032D01*
X109321968Y-110978032D02*
X109850000Y-110450000D01*
X106550000Y-80300000D02*
X106150000Y-79900000D01*
X106150000Y-79900000D02*
X105750000Y-79500000D01*
X105750000Y-79500000D02*
X105450000Y-79200000D01*
X106600000Y-80350000D02*
X106550000Y-80300000D01*
X105450000Y-79200000D02*
X105400000Y-79200000D01*
X105366185Y-84978032D02*
X105366185Y-81583815D01*
X105366185Y-81583815D02*
X106600000Y-80350000D01*
X105366185Y-132866185D02*
X105366185Y-131066185D01*
X105366185Y-131066185D02*
X105350000Y-131050000D01*
X105366185Y-136978032D02*
X105366185Y-132866185D01*
X105366185Y-132866185D02*
X105366185Y-132133815D01*
X105366185Y-132133815D02*
X105500000Y-132000000D01*
%TO.N,GND*%
X93585430Y-103631549D02*
X99953879Y-103631549D01*
X99953879Y-103631549D02*
X100161165Y-103838835D01*
%TO.N,+3V3*%
X109000000Y-95000000D02*
X102631551Y-95000000D01*
X102631551Y-95000000D02*
X102424265Y-94792714D01*
D24*
%TO.N,shutter*%
X77570134Y-109181981D02*
X74168019Y-109181981D01*
X74168019Y-109181981D02*
X72300000Y-111050000D01*
%TO.N,+3V3*%
X108792714Y-94792714D02*
X109000000Y-95000000D01*
X56000000Y-59175000D02*
X55803032Y-58978032D01*
X55803032Y-58978032D02*
X53366185Y-58978032D01*
X57000000Y-60175000D02*
X56000000Y-59175000D01*
X58000000Y-60175000D02*
X57000000Y-60175000D01*
%TO.N,rst*%
X95353197Y-101863782D02*
X101721646Y-101863782D01*
X101721646Y-101863782D02*
X101928932Y-102071068D01*
%TO.N,sda*%
X70787123Y-61848594D02*
X56151406Y-61848594D01*
X75497621Y-60774083D02*
X73978032Y-60774083D01*
X127798404Y-116666968D02*
X127798404Y-134201596D01*
X57976406Y-61848594D02*
X58000000Y-61825000D01*
X73978032Y-60774083D02*
X71861635Y-60774083D01*
X76572132Y-61848594D02*
X75497621Y-60774083D01*
X125978032Y-114846596D02*
X127798404Y-116666968D01*
X125978032Y-112774083D02*
X125978032Y-114846596D01*
X104015212Y-61848594D02*
X102848594Y-61848594D01*
X125978032Y-88846596D02*
X127052543Y-89921107D01*
X101774083Y-86774083D02*
X99978032Y-86774083D01*
X127052543Y-109947457D02*
X125978032Y-111021968D01*
X128000000Y-82000000D02*
X125978032Y-84021968D01*
X125978032Y-86774083D02*
X125978032Y-88846596D01*
X125978032Y-111021968D02*
X125978032Y-112774083D01*
X79089723Y-60774083D02*
X78015212Y-61848594D01*
X105257180Y-98328248D02*
X105464466Y-98535534D01*
X102848594Y-61848594D02*
X101774083Y-60774083D01*
X99978032Y-60774083D02*
X79089723Y-60774083D01*
X50572132Y-61848594D02*
X49497621Y-60774083D01*
X128000000Y-64315640D02*
X128000000Y-82000000D01*
X125978032Y-60774083D02*
X125978032Y-62293672D01*
X125978032Y-62293672D02*
X128000000Y-64315640D01*
X127798404Y-134201596D02*
X125978032Y-136021968D01*
X125978032Y-84021968D02*
X125978032Y-86774083D01*
X101774083Y-60774083D02*
X99978032Y-60774083D01*
X105089723Y-60774083D02*
X104015212Y-61848594D01*
X49497621Y-60774083D02*
X47978032Y-60774083D01*
X125978032Y-136021968D02*
X125978032Y-138774083D01*
X78015212Y-61848594D02*
X76572132Y-61848594D01*
X56151406Y-61848594D02*
X50572132Y-61848594D01*
X71861635Y-60774083D02*
X70787123Y-61848594D01*
X56151406Y-61848594D02*
X57976406Y-61848594D01*
X127052543Y-89921107D02*
X127052543Y-109947457D01*
X98888731Y-98328248D02*
X105257180Y-98328248D01*
X125978032Y-60774083D02*
X105089723Y-60774083D01*
%TO.N,scl*%
X127774083Y-113050545D02*
X128848594Y-114125056D01*
X71000000Y-61000000D02*
X71947457Y-60052543D01*
X128848594Y-89151406D02*
X128848594Y-88125056D01*
X77846596Y-58978032D02*
X78921107Y-60052543D01*
X77293672Y-136978032D02*
X75774083Y-136978032D01*
X51293672Y-136978032D02*
X49774083Y-136978032D01*
X127774083Y-83458443D02*
X127774083Y-84978032D01*
X103293672Y-110978032D02*
X106973261Y-107298443D01*
X128247924Y-136504191D02*
X127774083Y-136978032D01*
X127774083Y-61050545D02*
X129000000Y-62276462D01*
X78921107Y-60052543D02*
X96947457Y-60052543D01*
X127774083Y-58978032D02*
X127774083Y-61050545D01*
X107024947Y-96560481D02*
X107232233Y-96767767D01*
X56000000Y-61000000D02*
X71000000Y-61000000D01*
X128848594Y-114125056D02*
X128848594Y-118399330D01*
X101774083Y-136978032D02*
X100699572Y-135903521D01*
X128247924Y-119000000D02*
X128247924Y-136504191D01*
X129000000Y-82232526D02*
X127774083Y-83458443D01*
X128848594Y-118399330D02*
X128247924Y-119000000D01*
X101774083Y-110978032D02*
X103293672Y-110978032D01*
X106973261Y-97026739D02*
X107232233Y-96767767D01*
X128848594Y-88125056D02*
X127774083Y-87050545D01*
X100699572Y-135903521D02*
X78368183Y-135903521D01*
X71947457Y-60052543D02*
X72947457Y-60052543D01*
X106973261Y-107298443D02*
X106973261Y-97026739D01*
X56000000Y-60825000D02*
X56000000Y-61000000D01*
X75774083Y-58978032D02*
X77846596Y-58978032D01*
X75774083Y-136978032D02*
X74254494Y-136978032D01*
X124947457Y-60052543D02*
X126021968Y-58978032D01*
X98021968Y-58978032D02*
X101774083Y-58978032D01*
X103846596Y-58978032D02*
X104921107Y-60052543D01*
X127774083Y-90225917D02*
X128848594Y-89151406D01*
X96947457Y-60052543D02*
X98021968Y-58978032D01*
X74021968Y-58978032D02*
X75774083Y-58978032D01*
X126021968Y-58978032D02*
X127774083Y-58978032D01*
X104921107Y-60052543D02*
X124947457Y-60052543D01*
X129000000Y-62276462D02*
X129000000Y-82232526D01*
X100656498Y-96560481D02*
X107024947Y-96560481D01*
X49774083Y-58978032D02*
X51846596Y-58978032D01*
X78368183Y-135903521D02*
X77293672Y-136978032D01*
X51846596Y-58978032D02*
X53868564Y-61000000D01*
X72947457Y-60052543D02*
X74021968Y-58978032D01*
X127774083Y-87050545D02*
X127774083Y-84978032D01*
X127774083Y-110978032D02*
X127774083Y-113050545D01*
X101774083Y-58978032D02*
X103846596Y-58978032D01*
X127774083Y-110978032D02*
X127774083Y-90225917D01*
X53868564Y-61000000D02*
X56000000Y-61000000D01*
%TO.N,shutter*%
X51570134Y-135181981D02*
X77570134Y-135181981D01*
X129570134Y-57181981D02*
X103570134Y-57181981D01*
X130644645Y-112329005D02*
X130644645Y-118355355D01*
X129000000Y-134611847D02*
X129570134Y-135181981D01*
X81818019Y-57181981D02*
X82000000Y-57000000D01*
X103570134Y-100429866D02*
X103696699Y-100303301D01*
X129570134Y-109181981D02*
X129570134Y-111254494D01*
X77570134Y-57181981D02*
X81818019Y-57181981D01*
X129000000Y-120000000D02*
X129000000Y-134611847D01*
X103570134Y-109181981D02*
X103570134Y-100429866D01*
X103570134Y-57181981D02*
X77570134Y-57181981D01*
X129570134Y-111254494D02*
X130644645Y-112329005D01*
X130644645Y-118355355D02*
X129000000Y-120000000D01*
X51570134Y-57181981D02*
X77570134Y-57181981D01*
X77570134Y-135181981D02*
X103570134Y-135181981D01*
X97120964Y-100096015D02*
X103489413Y-100096015D01*
X103489413Y-100096015D02*
X103696699Y-100303301D01*
%TD*%
M02*
