%TF.GenerationSoftware,KiCad,Pcbnew,(6.0.1-0)*%
%TF.CreationDate,2022-09-26T15:58:14+02:00*%
%TF.ProjectId,wifi_camera,77696669-5f63-4616-9d65-72612e6b6963,rev?*%
%TF.SameCoordinates,Original*%
%TF.FileFunction,Soldermask,Top*%
%TF.FilePolarity,Negative*%
%FSLAX46Y46*%
G04 Gerber Fmt 4.6, Leading zero omitted, Abs format (unit mm)*
G04 Created by KiCad (PCBNEW (6.0.1-0)) date 2022-09-26 15:58:14*
%MOMM*%
%LPD*%
G01*
G04 APERTURE LIST*
G04 Aperture macros list*
%AMRoundRect*
0 Rectangle with rounded corners*
0 $1 Rounding radius*
0 $2 $3 $4 $5 $6 $7 $8 $9 X,Y pos of 4 corners*
0 Add a 4 corners polygon primitive as box body*
4,1,4,$2,$3,$4,$5,$6,$7,$8,$9,$2,$3,0*
0 Add four circle primitives for the rounded corners*
1,1,$1+$1,$2,$3*
1,1,$1+$1,$4,$5*
1,1,$1+$1,$6,$7*
1,1,$1+$1,$8,$9*
0 Add four rect primitives between the rounded corners*
20,1,$1+$1,$2,$3,$4,$5,0*
20,1,$1+$1,$4,$5,$6,$7,0*
20,1,$1+$1,$6,$7,$8,$9,0*
20,1,$1+$1,$8,$9,$2,$3,0*%
%AMHorizOval*
0 Thick line with rounded ends*
0 $1 width*
0 $2 $3 position (X,Y) of the first rounded end (center of the circle)*
0 $4 $5 position (X,Y) of the second rounded end (center of the circle)*
0 Add line between two ends*
20,1,$1,$2,$3,$4,$5,0*
0 Add two circle primitives to create the rounded ends*
1,1,$1,$2,$3*
1,1,$1,$4,$5*%
%AMRotRect*
0 Rectangle, with rotation*
0 The origin of the aperture is its center*
0 $1 length*
0 $2 width*
0 $3 Rotation angle, in degrees counterclockwise*
0 Add horizontal line*
21,1,$1,$2,0,0,$3*%
G04 Aperture macros list end*
%ADD10C,1.600000*%
%ADD11HorizOval,1.600000X0.000000X0.000000X0.000000X0.000000X0*%
%ADD12O,1.600000X1.600000*%
%ADD13C,2.000000*%
%ADD14RotRect,1.500000X1.500000X45.000000*%
%ADD15C,1.500000*%
%ADD16C,3.200000*%
%ADD17RoundRect,0.250000X0.512652X0.159099X0.159099X0.512652X-0.512652X-0.159099X-0.159099X-0.512652X0*%
%ADD18C,1.400000*%
%ADD19RotRect,3.500000X3.500000X135.000000*%
%ADD20C,3.500000*%
%ADD21RoundRect,0.250000X0.088388X-0.936916X0.936916X-0.088388X-0.088388X0.936916X-0.936916X0.088388X0*%
%ADD22HorizOval,1.700000X-0.088388X0.088388X0.088388X-0.088388X0*%
%ADD23RoundRect,0.250000X-0.088388X0.936916X-0.936916X0.088388X0.088388X-0.936916X0.936916X-0.088388X0*%
G04 APERTURE END LIST*
D10*
%TO.C,R4*%
X79509872Y-119990128D03*
D11*
X88490128Y-111009872D03*
%TD*%
%TO.C,R3*%
X77990128Y-71519744D03*
D10*
X69009872Y-80500000D03*
%TD*%
D11*
%TO.C,R2*%
X73320384Y-71519744D03*
D10*
X64340128Y-80500000D03*
%TD*%
%TO.C,R1*%
X103350000Y-80500000D03*
D12*
X90650000Y-80500000D03*
%TD*%
D13*
%TO.C,SW1*%
X63389088Y-90792894D03*
X58792894Y-95389088D03*
X60207108Y-87610913D03*
X55610913Y-92207107D03*
%TD*%
D14*
%TO.C,U1*%
X46181981Y-62570134D03*
D15*
X47978032Y-60774083D03*
X49774083Y-58978032D03*
X51570134Y-57181981D03*
X47978032Y-64366185D03*
X49774083Y-62570134D03*
X51570134Y-60774083D03*
X53366185Y-58978032D03*
%TD*%
D14*
%TO.C,U3*%
X46181981Y-114570134D03*
D15*
X47978032Y-112774083D03*
X49774083Y-110978032D03*
X51570134Y-109181981D03*
X47978032Y-116366185D03*
X49774083Y-114570134D03*
X51570134Y-112774083D03*
X53366185Y-110978032D03*
%TD*%
D14*
%TO.C,U14*%
X124181981Y-88570134D03*
D15*
X125978032Y-86774083D03*
X127774083Y-84978032D03*
X129570134Y-83181981D03*
X125978032Y-90366185D03*
X127774083Y-88570134D03*
X129570134Y-86774083D03*
X131366185Y-84978032D03*
%TD*%
D14*
%TO.C,U12*%
X98181981Y-140570134D03*
D15*
X99978032Y-138774083D03*
X101774083Y-136978032D03*
X103570134Y-135181981D03*
X99978032Y-142366185D03*
X101774083Y-140570134D03*
X103570134Y-138774083D03*
X105366185Y-136978032D03*
%TD*%
D14*
%TO.C,U10*%
X98181981Y-88570134D03*
D15*
X99978032Y-86774083D03*
X101774083Y-84978032D03*
X103570134Y-83181981D03*
X99978032Y-90366185D03*
X101774083Y-88570134D03*
X103570134Y-86774083D03*
X105366185Y-84978032D03*
%TD*%
D14*
%TO.C,U16*%
X124181981Y-140570134D03*
D15*
X125978032Y-138774083D03*
X127774083Y-136978032D03*
X129570134Y-135181981D03*
X125978032Y-142366185D03*
X127774083Y-140570134D03*
X129570134Y-138774083D03*
X131366185Y-136978032D03*
%TD*%
D16*
%TO.C,H2*%
X105500000Y-70000000D03*
%TD*%
D14*
%TO.C,U13*%
X124181981Y-62570134D03*
D15*
X125978032Y-60774083D03*
X127774083Y-58978032D03*
X129570134Y-57181981D03*
X125978032Y-64366185D03*
X127774083Y-62570134D03*
X129570134Y-60774083D03*
X131366185Y-58978032D03*
%TD*%
D14*
%TO.C,U15*%
X124181981Y-114570134D03*
D15*
X125978032Y-112774083D03*
X127774083Y-110978032D03*
X129570134Y-109181981D03*
X125978032Y-116366185D03*
X127774083Y-114570134D03*
X129570134Y-112774083D03*
X131366185Y-110978032D03*
%TD*%
D14*
%TO.C,U4*%
X46181981Y-140570134D03*
D15*
X47978032Y-138774083D03*
X49774083Y-136978032D03*
X51570134Y-135181981D03*
X47978032Y-142366185D03*
X49774083Y-140570134D03*
X51570134Y-138774083D03*
X53366185Y-136978032D03*
%TD*%
D14*
%TO.C,U7*%
X72181981Y-114570134D03*
D15*
X73978032Y-112774083D03*
X75774083Y-110978032D03*
X77570134Y-109181981D03*
X73978032Y-116366185D03*
X75774083Y-114570134D03*
X77570134Y-112774083D03*
X79366185Y-110978032D03*
%TD*%
D16*
%TO.C,H4*%
X52500000Y-123000000D03*
%TD*%
D14*
%TO.C,U6*%
X72181981Y-88570134D03*
D15*
X73978032Y-86774083D03*
X75774083Y-84978032D03*
X77570134Y-83181981D03*
X73978032Y-90366185D03*
X75774083Y-88570134D03*
X77570134Y-86774083D03*
X79366185Y-84978032D03*
%TD*%
D17*
%TO.C,C4*%
X66671751Y-109671751D03*
X65328249Y-108328249D03*
%TD*%
D14*
%TO.C,U5*%
X72181981Y-62570134D03*
D15*
X73978032Y-60774083D03*
X75774083Y-58978032D03*
X77570134Y-57181981D03*
X73978032Y-64366185D03*
X75774083Y-62570134D03*
X77570134Y-60774083D03*
X79366185Y-58978032D03*
%TD*%
D14*
%TO.C,U2*%
X46181981Y-88570134D03*
D15*
X47978032Y-86774083D03*
X49774083Y-84978032D03*
X51570134Y-83181981D03*
X47978032Y-90366185D03*
X49774083Y-88570134D03*
X51570134Y-86774083D03*
X53366185Y-84978032D03*
%TD*%
D16*
%TO.C,H1*%
X52500000Y-70000000D03*
%TD*%
D14*
%TO.C,U11*%
X98181981Y-114570134D03*
D15*
X99978032Y-112774083D03*
X101774083Y-110978032D03*
X103570134Y-109181981D03*
X99978032Y-116366185D03*
X101774083Y-114570134D03*
X103570134Y-112774083D03*
X105366185Y-110978032D03*
%TD*%
D14*
%TO.C,U9*%
X98181981Y-62570134D03*
D15*
X99978032Y-60774083D03*
X101774083Y-58978032D03*
X103570134Y-57181981D03*
X99978032Y-64366185D03*
X101774083Y-62570134D03*
X103570134Y-60774083D03*
X105366185Y-58978032D03*
%TD*%
D14*
%TO.C,U8*%
X72181981Y-140570134D03*
D15*
X73978032Y-138774083D03*
X75774083Y-136978032D03*
X77570134Y-135181981D03*
X73978032Y-142366185D03*
X75774083Y-140570134D03*
X77570134Y-138774083D03*
X79366185Y-136978032D03*
%TD*%
D16*
%TO.C,H3*%
X105500000Y-123000000D03*
%TD*%
D18*
%TO.C,J1*%
X79647324Y-103280850D03*
X71869149Y-95502676D03*
D19*
X66919402Y-104695064D03*
D20*
X70454936Y-108230598D03*
%TD*%
D21*
%TO.C,J3*%
X93585430Y-103631549D03*
D22*
X95353197Y-101863782D03*
X97120964Y-100096015D03*
X98888731Y-98328248D03*
X100656498Y-96560481D03*
X102424265Y-94792714D03*
%TD*%
D23*
%TO.C,J2*%
X109000000Y-95000000D03*
D22*
X107232233Y-96767767D03*
X105464466Y-98535534D03*
X103696699Y-100303301D03*
X101928932Y-102071068D03*
X100161165Y-103838835D03*
%TD*%
M02*
