%TF.GenerationSoftware,KiCad,Pcbnew,(6.0.1-0)*%
%TF.CreationDate,2022-09-26T15:58:14+02:00*%
%TF.ProjectId,wifi_camera,77696669-5f63-4616-9d65-72612e6b6963,rev?*%
%TF.SameCoordinates,Original*%
%TF.FileFunction,Copper,L2,Bot*%
%TF.FilePolarity,Positive*%
%FSLAX46Y46*%
G04 Gerber Fmt 4.6, Leading zero omitted, Abs format (unit mm)*
G04 Created by KiCad (PCBNEW (6.0.1-0)) date 2022-09-26 15:58:14*
%MOMM*%
%LPD*%
G01*
G04 APERTURE LIST*
G04 Aperture macros list*
%AMRoundRect*
0 Rectangle with rounded corners*
0 $1 Rounding radius*
0 $2 $3 $4 $5 $6 $7 $8 $9 X,Y pos of 4 corners*
0 Add a 4 corners polygon primitive as box body*
4,1,4,$2,$3,$4,$5,$6,$7,$8,$9,$2,$3,0*
0 Add four circle primitives for the rounded corners*
1,1,$1+$1,$2,$3*
1,1,$1+$1,$4,$5*
1,1,$1+$1,$6,$7*
1,1,$1+$1,$8,$9*
0 Add four rect primitives between the rounded corners*
20,1,$1+$1,$2,$3,$4,$5,0*
20,1,$1+$1,$4,$5,$6,$7,0*
20,1,$1+$1,$6,$7,$8,$9,0*
20,1,$1+$1,$8,$9,$2,$3,0*%
%AMHorizOval*
0 Thick line with rounded ends*
0 $1 width*
0 $2 $3 position (X,Y) of the first rounded end (center of the circle)*
0 $4 $5 position (X,Y) of the second rounded end (center of the circle)*
0 Add line between two ends*
20,1,$1,$2,$3,$4,$5,0*
0 Add two circle primitives to create the rounded ends*
1,1,$1,$2,$3*
1,1,$1,$4,$5*%
%AMRotRect*
0 Rectangle, with rotation*
0 The origin of the aperture is its center*
0 $1 length*
0 $2 width*
0 $3 Rotation angle, in degrees counterclockwise*
0 Add horizontal line*
21,1,$1,$2,0,0,$3*%
G04 Aperture macros list end*
%TA.AperFunction,ComponentPad*%
%ADD10C,1.600000*%
%TD*%
%TA.AperFunction,ComponentPad*%
%ADD11HorizOval,1.600000X0.000000X0.000000X0.000000X0.000000X0*%
%TD*%
%TA.AperFunction,ComponentPad*%
%ADD12O,1.600000X1.600000*%
%TD*%
%TA.AperFunction,ComponentPad*%
%ADD13C,2.000000*%
%TD*%
%TA.AperFunction,ComponentPad*%
%ADD14RotRect,1.500000X1.500000X45.000000*%
%TD*%
%TA.AperFunction,ComponentPad*%
%ADD15C,1.500000*%
%TD*%
%TA.AperFunction,ComponentPad*%
%ADD16C,1.400000*%
%TD*%
%TA.AperFunction,ComponentPad*%
%ADD17RotRect,3.500000X3.500000X135.000000*%
%TD*%
%TA.AperFunction,ComponentPad*%
%ADD18C,3.500000*%
%TD*%
%TA.AperFunction,ComponentPad*%
%ADD19RoundRect,0.250000X0.088388X-0.936916X0.936916X-0.088388X-0.088388X0.936916X-0.936916X0.088388X0*%
%TD*%
%TA.AperFunction,ComponentPad*%
%ADD20HorizOval,1.700000X-0.088388X0.088388X0.088388X-0.088388X0*%
%TD*%
%TA.AperFunction,ComponentPad*%
%ADD21RoundRect,0.250000X-0.088388X0.936916X-0.936916X0.088388X0.088388X-0.936916X0.936916X-0.088388X0*%
%TD*%
%TA.AperFunction,ViaPad*%
%ADD22C,0.800000*%
%TD*%
%TA.AperFunction,Conductor*%
%ADD23C,0.250000*%
%TD*%
%TA.AperFunction,Conductor*%
%ADD24C,1.000000*%
%TD*%
G04 APERTURE END LIST*
D10*
%TO.P,R4,1*%
%TO.N,+3V3*%
X79509872Y-119990128D03*
D11*
%TO.P,R4,2*%
%TO.N,shutter*%
X88490128Y-111009872D03*
%TD*%
%TO.P,R3,2*%
%TO.N,scl*%
X77990128Y-71519744D03*
D10*
%TO.P,R3,1*%
%TO.N,+3V3*%
X69009872Y-80500000D03*
%TD*%
D11*
%TO.P,R2,2*%
%TO.N,sda*%
X73320384Y-71519744D03*
D10*
%TO.P,R2,1*%
%TO.N,+3V3*%
X64340128Y-80500000D03*
%TD*%
%TO.P,R1,1*%
%TO.N,rst*%
X103350000Y-80500000D03*
D12*
%TO.P,R1,2*%
%TO.N,+3V3*%
X90650000Y-80500000D03*
%TD*%
D13*
%TO.P,SW1,1,1*%
%TO.N,rst*%
X63389088Y-90792894D03*
X58792894Y-95389088D03*
%TO.P,SW1,2,2*%
%TO.N,GND*%
X60207108Y-87610913D03*
X55610913Y-92207107D03*
%TD*%
D14*
%TO.P,U1,1,GND*%
%TO.N,GND*%
X46181981Y-62570134D03*
D15*
%TO.P,U1,2,IO2*%
%TO.N,sda*%
X47978032Y-60774083D03*
%TO.P,U1,3,IO0*%
%TO.N,scl*%
X49774083Y-58978032D03*
%TO.P,U1,4,RXD*%
%TO.N,shutter*%
X51570134Y-57181981D03*
%TO.P,U1,5,TXD*%
%TO.N,unconnected-(U1-Pad5)*%
X47978032Y-64366185D03*
%TO.P,U1,6,EN*%
%TO.N,unconnected-(U1-Pad6)*%
X49774083Y-62570134D03*
%TO.P,U1,7,~{RST}*%
%TO.N,rst*%
X51570134Y-60774083D03*
%TO.P,U1,8,VCC*%
%TO.N,+3V3*%
X53366185Y-58978032D03*
%TD*%
D14*
%TO.P,U3,1,GND*%
%TO.N,GND*%
X46181981Y-114570134D03*
D15*
%TO.P,U3,2,IO2*%
%TO.N,sda*%
X47978032Y-112774083D03*
%TO.P,U3,3,IO0*%
%TO.N,scl*%
X49774083Y-110978032D03*
%TO.P,U3,4,RXD*%
%TO.N,shutter*%
X51570134Y-109181981D03*
%TO.P,U3,5,TXD*%
%TO.N,unconnected-(U3-Pad5)*%
X47978032Y-116366185D03*
%TO.P,U3,6,EN*%
%TO.N,unconnected-(U3-Pad6)*%
X49774083Y-114570134D03*
%TO.P,U3,7,~{RST}*%
%TO.N,rst*%
X51570134Y-112774083D03*
%TO.P,U3,8,VCC*%
%TO.N,+3V3*%
X53366185Y-110978032D03*
%TD*%
D14*
%TO.P,U14,1,GND*%
%TO.N,GND*%
X124181981Y-88570134D03*
D15*
%TO.P,U14,2,IO2*%
%TO.N,sda*%
X125978032Y-86774083D03*
%TO.P,U14,3,IO0*%
%TO.N,scl*%
X127774083Y-84978032D03*
%TO.P,U14,4,RXD*%
%TO.N,shutter*%
X129570134Y-83181981D03*
%TO.P,U14,5,TXD*%
%TO.N,unconnected-(U14-Pad5)*%
X125978032Y-90366185D03*
%TO.P,U14,6,EN*%
%TO.N,unconnected-(U14-Pad6)*%
X127774083Y-88570134D03*
%TO.P,U14,7,~{RST}*%
%TO.N,rst*%
X129570134Y-86774083D03*
%TO.P,U14,8,VCC*%
%TO.N,+3V3*%
X131366185Y-84978032D03*
%TD*%
D14*
%TO.P,U12,1,GND*%
%TO.N,GND*%
X98181981Y-140570134D03*
D15*
%TO.P,U12,2,IO2*%
%TO.N,sda*%
X99978032Y-138774083D03*
%TO.P,U12,3,IO0*%
%TO.N,scl*%
X101774083Y-136978032D03*
%TO.P,U12,4,RXD*%
%TO.N,shutter*%
X103570134Y-135181981D03*
%TO.P,U12,5,TXD*%
%TO.N,unconnected-(U12-Pad5)*%
X99978032Y-142366185D03*
%TO.P,U12,6,EN*%
%TO.N,unconnected-(U12-Pad6)*%
X101774083Y-140570134D03*
%TO.P,U12,7,~{RST}*%
%TO.N,rst*%
X103570134Y-138774083D03*
%TO.P,U12,8,VCC*%
%TO.N,+3V3*%
X105366185Y-136978032D03*
%TD*%
D14*
%TO.P,U10,1,GND*%
%TO.N,GND*%
X98181981Y-88570134D03*
D15*
%TO.P,U10,2,IO2*%
%TO.N,sda*%
X99978032Y-86774083D03*
%TO.P,U10,3,IO0*%
%TO.N,scl*%
X101774083Y-84978032D03*
%TO.P,U10,4,RXD*%
%TO.N,shutter*%
X103570134Y-83181981D03*
%TO.P,U10,5,TXD*%
%TO.N,unconnected-(U10-Pad5)*%
X99978032Y-90366185D03*
%TO.P,U10,6,EN*%
%TO.N,unconnected-(U10-Pad6)*%
X101774083Y-88570134D03*
%TO.P,U10,7,~{RST}*%
%TO.N,rst*%
X103570134Y-86774083D03*
%TO.P,U10,8,VCC*%
%TO.N,+3V3*%
X105366185Y-84978032D03*
%TD*%
D14*
%TO.P,U16,1,GND*%
%TO.N,GND*%
X124181981Y-140570134D03*
D15*
%TO.P,U16,2,IO2*%
%TO.N,sda*%
X125978032Y-138774083D03*
%TO.P,U16,3,IO0*%
%TO.N,scl*%
X127774083Y-136978032D03*
%TO.P,U16,4,RXD*%
%TO.N,shutter*%
X129570134Y-135181981D03*
%TO.P,U16,5,TXD*%
%TO.N,unconnected-(U16-Pad5)*%
X125978032Y-142366185D03*
%TO.P,U16,6,EN*%
%TO.N,unconnected-(U16-Pad6)*%
X127774083Y-140570134D03*
%TO.P,U16,7,~{RST}*%
%TO.N,rst*%
X129570134Y-138774083D03*
%TO.P,U16,8,VCC*%
%TO.N,+3V3*%
X131366185Y-136978032D03*
%TD*%
D14*
%TO.P,U13,1,GND*%
%TO.N,GND*%
X124181981Y-62570134D03*
D15*
%TO.P,U13,2,IO2*%
%TO.N,sda*%
X125978032Y-60774083D03*
%TO.P,U13,3,IO0*%
%TO.N,scl*%
X127774083Y-58978032D03*
%TO.P,U13,4,RXD*%
%TO.N,shutter*%
X129570134Y-57181981D03*
%TO.P,U13,5,TXD*%
%TO.N,unconnected-(U13-Pad5)*%
X125978032Y-64366185D03*
%TO.P,U13,6,EN*%
%TO.N,unconnected-(U13-Pad6)*%
X127774083Y-62570134D03*
%TO.P,U13,7,~{RST}*%
%TO.N,rst*%
X129570134Y-60774083D03*
%TO.P,U13,8,VCC*%
%TO.N,+3V3*%
X131366185Y-58978032D03*
%TD*%
D14*
%TO.P,U15,1,GND*%
%TO.N,GND*%
X124181981Y-114570134D03*
D15*
%TO.P,U15,2,IO2*%
%TO.N,sda*%
X125978032Y-112774083D03*
%TO.P,U15,3,IO0*%
%TO.N,scl*%
X127774083Y-110978032D03*
%TO.P,U15,4,RXD*%
%TO.N,shutter*%
X129570134Y-109181981D03*
%TO.P,U15,5,TXD*%
%TO.N,unconnected-(U15-Pad5)*%
X125978032Y-116366185D03*
%TO.P,U15,6,EN*%
%TO.N,unconnected-(U15-Pad6)*%
X127774083Y-114570134D03*
%TO.P,U15,7,~{RST}*%
%TO.N,rst*%
X129570134Y-112774083D03*
%TO.P,U15,8,VCC*%
%TO.N,+3V3*%
X131366185Y-110978032D03*
%TD*%
D14*
%TO.P,U4,1,GND*%
%TO.N,GND*%
X46181981Y-140570134D03*
D15*
%TO.P,U4,2,IO2*%
%TO.N,sda*%
X47978032Y-138774083D03*
%TO.P,U4,3,IO0*%
%TO.N,scl*%
X49774083Y-136978032D03*
%TO.P,U4,4,RXD*%
%TO.N,shutter*%
X51570134Y-135181981D03*
%TO.P,U4,5,TXD*%
%TO.N,unconnected-(U4-Pad5)*%
X47978032Y-142366185D03*
%TO.P,U4,6,EN*%
%TO.N,unconnected-(U4-Pad6)*%
X49774083Y-140570134D03*
%TO.P,U4,7,~{RST}*%
%TO.N,rst*%
X51570134Y-138774083D03*
%TO.P,U4,8,VCC*%
%TO.N,+3V3*%
X53366185Y-136978032D03*
%TD*%
D14*
%TO.P,U7,1,GND*%
%TO.N,GND*%
X72181981Y-114570134D03*
D15*
%TO.P,U7,2,IO2*%
%TO.N,sda*%
X73978032Y-112774083D03*
%TO.P,U7,3,IO0*%
%TO.N,scl*%
X75774083Y-110978032D03*
%TO.P,U7,4,RXD*%
%TO.N,shutter*%
X77570134Y-109181981D03*
%TO.P,U7,5,TXD*%
%TO.N,unconnected-(U7-Pad5)*%
X73978032Y-116366185D03*
%TO.P,U7,6,EN*%
%TO.N,unconnected-(U7-Pad6)*%
X75774083Y-114570134D03*
%TO.P,U7,7,~{RST}*%
%TO.N,rst*%
X77570134Y-112774083D03*
%TO.P,U7,8,VCC*%
%TO.N,+3V3*%
X79366185Y-110978032D03*
%TD*%
D14*
%TO.P,U6,1,GND*%
%TO.N,GND*%
X72181981Y-88570134D03*
D15*
%TO.P,U6,2,IO2*%
%TO.N,sda*%
X73978032Y-86774083D03*
%TO.P,U6,3,IO0*%
%TO.N,scl*%
X75774083Y-84978032D03*
%TO.P,U6,4,RXD*%
%TO.N,shutter*%
X77570134Y-83181981D03*
%TO.P,U6,5,TXD*%
%TO.N,unconnected-(U6-Pad5)*%
X73978032Y-90366185D03*
%TO.P,U6,6,EN*%
%TO.N,unconnected-(U6-Pad6)*%
X75774083Y-88570134D03*
%TO.P,U6,7,~{RST}*%
%TO.N,rst*%
X77570134Y-86774083D03*
%TO.P,U6,8,VCC*%
%TO.N,+3V3*%
X79366185Y-84978032D03*
%TD*%
D14*
%TO.P,U5,1,GND*%
%TO.N,GND*%
X72181981Y-62570134D03*
D15*
%TO.P,U5,2,IO2*%
%TO.N,sda*%
X73978032Y-60774083D03*
%TO.P,U5,3,IO0*%
%TO.N,scl*%
X75774083Y-58978032D03*
%TO.P,U5,4,RXD*%
%TO.N,shutter*%
X77570134Y-57181981D03*
%TO.P,U5,5,TXD*%
%TO.N,unconnected-(U5-Pad5)*%
X73978032Y-64366185D03*
%TO.P,U5,6,EN*%
%TO.N,unconnected-(U5-Pad6)*%
X75774083Y-62570134D03*
%TO.P,U5,7,~{RST}*%
%TO.N,rst*%
X77570134Y-60774083D03*
%TO.P,U5,8,VCC*%
%TO.N,+3V3*%
X79366185Y-58978032D03*
%TD*%
D14*
%TO.P,U2,1,GND*%
%TO.N,GND*%
X46181981Y-88570134D03*
D15*
%TO.P,U2,2,IO2*%
%TO.N,sda*%
X47978032Y-86774083D03*
%TO.P,U2,3,IO0*%
%TO.N,scl*%
X49774083Y-84978032D03*
%TO.P,U2,4,RXD*%
%TO.N,shutter*%
X51570134Y-83181981D03*
%TO.P,U2,5,TXD*%
%TO.N,unconnected-(U2-Pad5)*%
X47978032Y-90366185D03*
%TO.P,U2,6,EN*%
%TO.N,unconnected-(U2-Pad6)*%
X49774083Y-88570134D03*
%TO.P,U2,7,~{RST}*%
%TO.N,rst*%
X51570134Y-86774083D03*
%TO.P,U2,8,VCC*%
%TO.N,+3V3*%
X53366185Y-84978032D03*
%TD*%
D14*
%TO.P,U11,1,GND*%
%TO.N,GND*%
X98181981Y-114570134D03*
D15*
%TO.P,U11,2,IO2*%
%TO.N,sda*%
X99978032Y-112774083D03*
%TO.P,U11,3,IO0*%
%TO.N,scl*%
X101774083Y-110978032D03*
%TO.P,U11,4,RXD*%
%TO.N,shutter*%
X103570134Y-109181981D03*
%TO.P,U11,5,TXD*%
%TO.N,unconnected-(U11-Pad5)*%
X99978032Y-116366185D03*
%TO.P,U11,6,EN*%
%TO.N,unconnected-(U11-Pad6)*%
X101774083Y-114570134D03*
%TO.P,U11,7,~{RST}*%
%TO.N,rst*%
X103570134Y-112774083D03*
%TO.P,U11,8,VCC*%
%TO.N,+3V3*%
X105366185Y-110978032D03*
%TD*%
D14*
%TO.P,U9,1,GND*%
%TO.N,GND*%
X98181981Y-62570134D03*
D15*
%TO.P,U9,2,IO2*%
%TO.N,sda*%
X99978032Y-60774083D03*
%TO.P,U9,3,IO0*%
%TO.N,scl*%
X101774083Y-58978032D03*
%TO.P,U9,4,RXD*%
%TO.N,shutter*%
X103570134Y-57181981D03*
%TO.P,U9,5,TXD*%
%TO.N,unconnected-(U9-Pad5)*%
X99978032Y-64366185D03*
%TO.P,U9,6,EN*%
%TO.N,unconnected-(U9-Pad6)*%
X101774083Y-62570134D03*
%TO.P,U9,7,~{RST}*%
%TO.N,rst*%
X103570134Y-60774083D03*
%TO.P,U9,8,VCC*%
%TO.N,+3V3*%
X105366185Y-58978032D03*
%TD*%
D14*
%TO.P,U8,1,GND*%
%TO.N,GND*%
X72181981Y-140570134D03*
D15*
%TO.P,U8,2,IO2*%
%TO.N,sda*%
X73978032Y-138774083D03*
%TO.P,U8,3,IO0*%
%TO.N,scl*%
X75774083Y-136978032D03*
%TO.P,U8,4,RXD*%
%TO.N,shutter*%
X77570134Y-135181981D03*
%TO.P,U8,5,TXD*%
%TO.N,unconnected-(U8-Pad5)*%
X73978032Y-142366185D03*
%TO.P,U8,6,EN*%
%TO.N,unconnected-(U8-Pad6)*%
X75774083Y-140570134D03*
%TO.P,U8,7,~{RST}*%
%TO.N,rst*%
X77570134Y-138774083D03*
%TO.P,U8,8,VCC*%
%TO.N,+3V3*%
X79366185Y-136978032D03*
%TD*%
D16*
%TO.P,J1,*%
%TO.N,*%
X79647324Y-103280850D03*
X71869149Y-95502676D03*
D17*
%TO.P,J1,1,Pin_1*%
%TO.N,GND*%
X66919402Y-104695064D03*
D18*
%TO.P,J1,2,Pin_2*%
%TO.N,+3V3*%
X70454936Y-108230598D03*
%TD*%
D19*
%TO.P,J3,1,Pin_1*%
%TO.N,GND*%
X93585430Y-103631549D03*
D20*
%TO.P,J3,2,Pin_2*%
%TO.N,rst*%
X95353197Y-101863782D03*
%TO.P,J3,3,Pin_3*%
%TO.N,shutter*%
X97120964Y-100096015D03*
%TO.P,J3,4,Pin_4*%
%TO.N,sda*%
X98888731Y-98328248D03*
%TO.P,J3,5,Pin_5*%
%TO.N,scl*%
X100656498Y-96560481D03*
%TO.P,J3,6,Pin_6*%
%TO.N,+3V3*%
X102424265Y-94792714D03*
%TD*%
D21*
%TO.P,J2,1,Pin_1*%
%TO.N,+3V3*%
X109000000Y-95000000D03*
D20*
%TO.P,J2,2,Pin_2*%
%TO.N,scl*%
X107232233Y-96767767D03*
%TO.P,J2,3,Pin_3*%
%TO.N,sda*%
X105464466Y-98535534D03*
%TO.P,J2,4,Pin_4*%
%TO.N,shutter*%
X103696699Y-100303301D03*
%TO.P,J2,5,Pin_5*%
%TO.N,rst*%
X101928932Y-102071068D03*
%TO.P,J2,6,Pin_6*%
%TO.N,GND*%
X100161165Y-103838835D03*
%TD*%
D22*
%TO.N,+3V3*%
X78150000Y-101600000D03*
X78150000Y-100650000D03*
X78150000Y-99650000D03*
X78150000Y-98750000D03*
%TO.N,GND*%
X92650000Y-114600000D03*
X91279866Y-114570134D03*
X90279866Y-114570134D03*
%TO.N,+3V3*%
X109225000Y-107325000D03*
X108750000Y-106850000D03*
X108275000Y-106375000D03*
X106650000Y-80350000D03*
X105750000Y-79500000D03*
X105450000Y-131050000D03*
X105450000Y-132100000D03*
%TD*%
D23*
%TO.N,rst*%
X63389088Y-90792894D02*
X72031734Y-90792894D01*
X72031734Y-90792894D02*
X76050545Y-86774083D01*
X76050545Y-86774083D02*
X77570134Y-86774083D01*
D24*
%TO.N,+3V3*%
X79366185Y-110978032D02*
X79366185Y-122366185D01*
D23*
X79509872Y-122222498D02*
X79366185Y-122366185D01*
D24*
X79366185Y-122366185D02*
X79366185Y-136978032D01*
D23*
X79509872Y-119990128D02*
X79509872Y-122222498D01*
%TO.N,scl*%
X77990128Y-71519744D02*
X77990128Y-62713666D01*
X75774083Y-60497621D02*
X75774083Y-58978032D01*
X77990128Y-62713666D02*
X75774083Y-60497621D01*
%TO.N,sda*%
X73978032Y-60774083D02*
X73978032Y-62846596D01*
X73978032Y-62846596D02*
X72903521Y-63921107D01*
X72903521Y-63921107D02*
X72903521Y-71102881D01*
X72903521Y-71102881D02*
X73320384Y-71519744D01*
%TO.N,rst*%
X77570134Y-60774083D02*
X80500000Y-63703949D01*
X80500000Y-63703949D02*
X80500000Y-73000000D01*
X80500000Y-73000000D02*
X79114639Y-74385361D01*
X79114639Y-74385361D02*
X79114639Y-83709989D01*
X77570134Y-85254494D02*
X77570134Y-86774083D01*
X79114639Y-83709989D02*
X77570134Y-85254494D01*
D24*
%TO.N,+3V3*%
X79366185Y-58978032D02*
X81500000Y-61111847D01*
X81500000Y-61111847D02*
X81500000Y-74500000D01*
X81500000Y-74500000D02*
X80250000Y-75750000D01*
X80250000Y-75750000D02*
X80250000Y-81750000D01*
X80250000Y-84094217D02*
X80250000Y-81750000D01*
D23*
X90650000Y-80500000D02*
X88500000Y-80500000D01*
X88500000Y-80500000D02*
X87000000Y-82000000D01*
X87000000Y-82000000D02*
X80500000Y-82000000D01*
X80500000Y-82000000D02*
X80250000Y-81750000D01*
%TO.N,rst*%
X100699572Y-85976034D02*
X100699572Y-85699572D01*
X100699572Y-85699572D02*
X100699572Y-65164234D01*
X100699572Y-83150428D02*
X100699572Y-85699572D01*
X103350000Y-80500000D02*
X100699572Y-83150428D01*
X102050545Y-86774083D02*
X103570134Y-86774083D01*
%TO.N,shutter*%
X129570134Y-57181981D02*
X129570134Y-59254494D01*
X129570134Y-59254494D02*
X128495623Y-60329005D01*
X128495623Y-60329005D02*
X128495623Y-61219161D01*
X128495623Y-61219161D02*
X129570134Y-62293672D01*
X129570134Y-62293672D02*
X129570134Y-83181981D01*
D24*
%TO.N,+3V3*%
X79366185Y-58978032D02*
X79366185Y-56016185D01*
X79366185Y-56016185D02*
X77900000Y-54550000D01*
X77900000Y-54550000D02*
X75600000Y-54550000D01*
X54837664Y-60449511D02*
X53366185Y-58978032D01*
X75600000Y-54550000D02*
X69700489Y-60449511D01*
X69700489Y-60449511D02*
X54837664Y-60449511D01*
X105366185Y-58978032D02*
X105366185Y-56928113D01*
X105366185Y-56928113D02*
X102988072Y-54550000D01*
X102988072Y-54550000D02*
X99700000Y-54550000D01*
X79366185Y-58978032D02*
X95271968Y-58978032D01*
X128250000Y-54450000D02*
X131750000Y-54450000D01*
X131750000Y-54450000D02*
X132600000Y-55300000D01*
X105366185Y-58978032D02*
X123721968Y-58978032D01*
X123721968Y-58978032D02*
X128250000Y-54450000D01*
X132600000Y-55300000D02*
X132600000Y-57744217D01*
X132600000Y-57744217D02*
X131366185Y-58978032D01*
X95271968Y-58978032D02*
X99700000Y-54550000D01*
D23*
%TO.N,rst*%
X101928932Y-102071068D02*
X101928932Y-99493937D01*
X103687173Y-86891122D02*
X103570134Y-86774083D01*
X101928932Y-99493937D02*
X103687173Y-97735696D01*
X103687173Y-97735696D02*
X103687173Y-86891122D01*
X77570134Y-112774083D02*
X77570134Y-110701570D01*
X77570134Y-110701570D02*
X76495623Y-109627059D01*
X76495623Y-90811263D02*
X77050000Y-90256886D01*
X77050000Y-87294217D02*
X77570134Y-86774083D01*
X76495623Y-109627059D02*
X76495623Y-90811263D01*
X77050000Y-90256886D02*
X77050000Y-87294217D01*
D24*
%TO.N,+3V3*%
X53366185Y-110978032D02*
X67707502Y-110978032D01*
X67707502Y-110978032D02*
X70454936Y-108230598D01*
%TO.N,GND*%
X92650000Y-114600000D02*
X90400000Y-114600000D01*
X93550000Y-114600000D02*
X92650000Y-114600000D01*
X95405924Y-111794076D02*
X98181981Y-114570134D01*
X93585430Y-109973583D02*
X95405924Y-111794076D01*
X95405924Y-111794076D02*
X95405924Y-112744076D01*
X95405924Y-112744076D02*
X93550000Y-114600000D01*
X93585430Y-103631549D02*
X93585430Y-109973583D01*
%TO.N,+3V3*%
X109225000Y-107325000D02*
X109250000Y-107350000D01*
X108750000Y-106850000D02*
X109225000Y-107325000D01*
X108275000Y-106375000D02*
X108750000Y-106850000D01*
X105550000Y-101600000D02*
X105550000Y-103650000D01*
X105550000Y-103650000D02*
X108275000Y-106375000D01*
X109000000Y-95000000D02*
X109000000Y-98150000D01*
X109000000Y-98150000D02*
X105550000Y-101600000D01*
X105366185Y-84978032D02*
X105366185Y-91366185D01*
X105366185Y-91366185D02*
X109000000Y-95000000D01*
X105275000Y-79125000D02*
X106550000Y-80400000D01*
X105366185Y-58978032D02*
X110000000Y-63611847D01*
X110000000Y-63611847D02*
X110000000Y-72050000D01*
X110000000Y-72050000D02*
X104900000Y-77150000D01*
X104900000Y-77150000D02*
X104900000Y-78750000D01*
X104900000Y-78750000D02*
X105275000Y-79125000D01*
X79366185Y-84978032D02*
X80250000Y-84094217D01*
X79366185Y-110978032D02*
X79366185Y-108928113D01*
X79366185Y-108928113D02*
X78170542Y-107732470D01*
X78170542Y-107732470D02*
X78170542Y-88223594D01*
X78170542Y-88223594D02*
X79366185Y-87027951D01*
X79366185Y-87027951D02*
X79366185Y-84978032D01*
D23*
%TO.N,rst*%
X77570134Y-112774083D02*
X77570134Y-125229866D01*
X77570134Y-125229866D02*
X76495623Y-126304377D01*
X76495623Y-126304377D02*
X76495623Y-136179983D01*
X76495623Y-136179983D02*
X77570134Y-137254494D01*
X77570134Y-137254494D02*
X77570134Y-138774083D01*
D24*
%TO.N,+3V3*%
X105450000Y-131050000D02*
X105450000Y-131750000D01*
X105450000Y-131750000D02*
X105450000Y-132100000D01*
X105450000Y-132100000D02*
X105450000Y-132250000D01*
X110350000Y-119050000D02*
X110350000Y-123350000D01*
X110350000Y-123350000D02*
X109300000Y-124400000D01*
X105366185Y-110978032D02*
X110350000Y-115961847D01*
X110350000Y-115961847D02*
X110350000Y-119050000D01*
X109300000Y-124400000D02*
X105700000Y-128000000D01*
X105450000Y-128000000D02*
X105450000Y-131050000D01*
X105700000Y-128000000D02*
X105450000Y-128000000D01*
X131366185Y-110978032D02*
X133200000Y-112811847D01*
X133200000Y-112811847D02*
X133200000Y-135144217D01*
X133200000Y-135144217D02*
X131366185Y-136978032D01*
X131366185Y-84978032D02*
X131366185Y-86966185D01*
X131366185Y-86966185D02*
X133400000Y-89000000D01*
X133400000Y-89000000D02*
X133400000Y-108944217D01*
X133400000Y-108944217D02*
X131366185Y-110978032D01*
X131366185Y-58978032D02*
X132850000Y-60461847D01*
X132850000Y-60461847D02*
X132850000Y-83494217D01*
X132850000Y-83494217D02*
X131366185Y-84978032D01*
D23*
%TO.N,rst*%
X129570134Y-60774083D02*
X130644645Y-61848594D01*
X130150000Y-84669654D02*
X130150000Y-86194217D01*
X130644645Y-61848594D02*
X130644645Y-84175009D01*
X130150000Y-86194217D02*
X129570134Y-86774083D01*
X130644645Y-84175009D02*
X130150000Y-84669654D01*
D24*
%TO.N,+3V3*%
X53366185Y-136978032D02*
X53366185Y-128083815D01*
X53366185Y-128083815D02*
X57400000Y-124050000D01*
X57400000Y-124050000D02*
X57400000Y-122200000D01*
X57400000Y-122200000D02*
X53366185Y-118166185D01*
X53366185Y-118166185D02*
X53366185Y-110978032D01*
X53366185Y-84978032D02*
X53366185Y-110978032D01*
X53366185Y-58978032D02*
X54850000Y-60461847D01*
X54850000Y-60461847D02*
X54850000Y-64800000D01*
X54850000Y-64800000D02*
X58000000Y-67950000D01*
X58000000Y-67950000D02*
X58000000Y-71450000D01*
X53700000Y-75750000D02*
X53700000Y-76000000D01*
X58000000Y-71450000D02*
X53700000Y-75750000D01*
X53700000Y-76000000D02*
X53366185Y-76333815D01*
X53366185Y-76333815D02*
X53366185Y-84978032D01*
D23*
%TO.N,rst*%
X100699572Y-65164234D02*
X103570134Y-62293672D01*
X129570134Y-137254494D02*
X130644645Y-136179983D01*
X82796051Y-144000000D02*
X101000000Y-144000000D01*
X100699572Y-111423110D02*
X102050545Y-112774083D01*
X51570134Y-64429866D02*
X49000000Y-67000000D01*
X129570134Y-112774083D02*
X129570134Y-111254494D01*
X73863806Y-144000000D02*
X77570134Y-140293672D01*
X47000000Y-122000000D02*
X47000000Y-129000000D01*
X103570134Y-62293672D02*
X103570134Y-60774083D01*
X131000000Y-88203949D02*
X129570134Y-86774083D01*
X51570134Y-60774083D02*
X51570134Y-64429866D01*
X51570134Y-85254494D02*
X51570134Y-86774083D01*
X103429866Y-141570134D02*
X103570134Y-141570134D01*
X103570134Y-141570134D02*
X103570134Y-138774083D01*
X50495623Y-109627059D02*
X51570134Y-110701570D01*
X50495623Y-108736903D02*
X50495623Y-109627059D01*
X101000000Y-144000000D02*
X103429866Y-141570134D01*
X101497621Y-138774083D02*
X100000000Y-137276462D01*
X101928932Y-102071068D02*
X101928932Y-109303594D01*
X51570134Y-136701570D02*
X51570134Y-138774083D01*
X106000000Y-144000000D02*
X103570134Y-141570134D01*
X49000000Y-67000000D02*
X49000000Y-82684360D01*
X77570134Y-138774083D02*
X82796051Y-144000000D01*
X49000000Y-82684360D02*
X51570134Y-85254494D01*
X56796051Y-144000000D02*
X73863806Y-144000000D01*
X101497621Y-86774083D02*
X100699572Y-85976034D01*
X48000000Y-130000000D02*
X48000000Y-133131436D01*
X77570134Y-140293672D02*
X77570134Y-138774083D01*
X48000000Y-133131436D02*
X51570134Y-136701570D01*
X51570134Y-112774083D02*
X51570134Y-117429866D01*
X129570134Y-111254494D02*
X131000000Y-109824628D01*
X103570134Y-138774083D02*
X101497621Y-138774083D01*
X129570134Y-138774083D02*
X129570134Y-143429866D01*
X47000000Y-129000000D02*
X48000000Y-130000000D01*
X51570134Y-107662392D02*
X50495623Y-108736903D01*
X51570134Y-138774083D02*
X56796051Y-144000000D01*
X129000000Y-144000000D02*
X106000000Y-144000000D01*
X103570134Y-86774083D02*
X101497621Y-86774083D01*
X130644645Y-136179983D02*
X130644645Y-113848594D01*
X51570134Y-117429866D02*
X47000000Y-122000000D01*
X129570134Y-138774083D02*
X129570134Y-137254494D01*
X51570134Y-110701570D02*
X51570134Y-112774083D01*
X100000000Y-123000000D02*
X103570134Y-119429866D01*
X100000000Y-137276462D02*
X100000000Y-123000000D01*
X102050545Y-112774083D02*
X103570134Y-112774083D01*
X131000000Y-109824628D02*
X131000000Y-88203949D01*
X100699572Y-110532954D02*
X100699572Y-111423110D01*
X129570134Y-143429866D02*
X129000000Y-144000000D01*
X103570134Y-119429866D02*
X103570134Y-112774083D01*
X101928932Y-109303594D02*
X100699572Y-110532954D01*
X51570134Y-86774083D02*
X51570134Y-107662392D01*
X130644645Y-113848594D02*
X129570134Y-112774083D01*
%TO.N,sda*%
X98888731Y-111684782D02*
X98888731Y-98328248D01*
X99978032Y-112774083D02*
X98888731Y-111684782D01*
%TO.N,scl*%
X101774083Y-110978032D02*
X103293672Y-110978032D01*
X127774083Y-84978032D02*
X107021968Y-84978032D01*
X105193127Y-109631501D02*
X126427552Y-109631501D01*
X103846596Y-110978032D02*
X105193127Y-109631501D01*
X107021968Y-84978032D02*
X107000000Y-85000000D01*
X101774083Y-110978032D02*
X103846596Y-110978032D01*
X104921107Y-135903521D02*
X126699572Y-135903521D01*
X107000000Y-85000000D02*
X105903521Y-83903521D01*
X104921107Y-83903521D02*
X103846596Y-84978032D01*
X126699572Y-135903521D02*
X127774083Y-136978032D01*
X126427552Y-109631501D02*
X127774083Y-110978032D01*
X101774083Y-136978032D02*
X103846596Y-136978032D01*
X103846596Y-84978032D02*
X101774083Y-84978032D01*
X105903521Y-83903521D02*
X104921107Y-83903521D01*
X103846596Y-136978032D02*
X104921107Y-135903521D01*
%TO.N,shutter*%
X129570134Y-135181981D02*
X103570134Y-135181981D01*
X129570134Y-83181981D02*
X129570134Y-85254494D01*
X129570134Y-83181981D02*
X103570134Y-83181981D01*
X130550480Y-108201635D02*
X129570134Y-109181981D01*
X130550480Y-89274018D02*
X130550480Y-108201635D01*
X128495623Y-87219161D02*
X130550480Y-89274018D01*
X128495623Y-86329005D02*
X128495623Y-87219161D01*
X129570134Y-109181981D02*
X103570134Y-109181981D01*
X129570134Y-85254494D02*
X128495623Y-86329005D01*
%TD*%
M02*
